<?xml version="1.0" encoding="utf-8" standalone="no"?>
<!DOCTYPE svg PUBLIC "-//W3C//DTD SVG 1.1//EN"
  "http://www.w3.org/Graphics/SVG/1.1/DTD/svg11.dtd">
<svg xmlns:xlink="http://www.w3.org/1999/xlink" width="864pt" height="864pt" viewBox="0 0 864 864" xmlns="http://www.w3.org/2000/svg" version="1.1">
 <metadata>
  <rdf:RDF xmlns:dc="http://purl.org/dc/elements/1.1/" xmlns:cc="http://creativecommons.org/ns#" xmlns:rdf="http://www.w3.org/1999/02/22-rdf-syntax-ns#">
   <cc:Work>
    <dc:type rdf:resource="http://purl.org/dc/dcmitype/StillImage"/>
    <dc:date>2024-08-27T13:05:21.892550</dc:date>
    <dc:format>image/svg+xml</dc:format>
    <dc:creator>
     <cc:Agent>
      <dc:title>Matplotlib v3.9.2, https://matplotlib.org/</dc:title>
     </cc:Agent>
    </dc:creator>
   </cc:Work>
  </rdf:RDF>
 </metadata>
 <defs>
  <style type="text/css">*{stroke-linejoin: round; stroke-linecap: butt}</style>
 </defs>
 <g id="figure_1">
  <g id="patch_1">
   <path d="M 0 864 
L 864 864 
L 864 0 
L 0 0 
z
" style="fill: #ffffff"/>
  </g>
  <g id="axes_1">
   <g id="patch_2">
    <path d="M 47.72 822.04 
L 800.53 822.04 
L 800.53 26.88 
L 47.72 26.88 
z
" style="fill: #ffffff"/>
   </g>
   <g id="matplotlib.axis_1">
    <g id="xtick_1">
     <g id="line2d_1">
      <path d="M 81.935197 822.04 
L 81.935197 26.88 
" clip-path="url(#pda3d5314aa)" style="fill: none; stroke: #b0b0b0; stroke-width: 0.8; stroke-linecap: square"/>
     </g>
     <g id="line2d_2">
      <defs>
       <path id="m44c9f471bf" d="M 0 0 
L 0 3.5 
" style="stroke: #000000; stroke-width: 0.8"/>
      </defs>
      <g>
       <use xlink:href="#m44c9f471bf" x="81.935197" y="822.04" style="stroke: #000000; stroke-width: 0.8"/>
      </g>
     </g>
     <g id="text_1">
      <!-- 0 -->
      <g transform="translate(78.753947 836.638438) scale(0.1 -0.1)">
       <defs>
        <path id="DejaVuSans-30" d="M 2034 4250 
Q 1547 4250 1301 3770 
Q 1056 3291 1056 2328 
Q 1056 1369 1301 889 
Q 1547 409 2034 409 
Q 2525 409 2770 889 
Q 3016 1369 3016 2328 
Q 3016 3291 2770 3770 
Q 2525 4250 2034 4250 
z
M 2034 4750 
Q 2819 4750 3233 4129 
Q 3647 3509 3647 2328 
Q 3647 1150 3233 529 
Q 2819 -91 2034 -91 
Q 1250 -91 836 529 
Q 422 1150 422 2328 
Q 422 3509 836 4129 
Q 1250 4750 2034 4750 
z
" transform="scale(0.015625)"/>
       </defs>
       <use xlink:href="#DejaVuSans-30"/>
      </g>
     </g>
    </g>
    <g id="xtick_2">
     <g id="line2d_3">
      <path d="M 167.912103 822.04 
L 167.912103 26.88 
" clip-path="url(#pda3d5314aa)" style="fill: none; stroke: #b0b0b0; stroke-width: 0.8; stroke-linecap: square"/>
     </g>
     <g id="line2d_4">
      <g>
       <use xlink:href="#m44c9f471bf" x="167.912103" y="822.04" style="stroke: #000000; stroke-width: 0.8"/>
      </g>
     </g>
     <g id="text_2">
      <!-- 25000 -->
      <g transform="translate(152.005853 836.638438) scale(0.1 -0.1)">
       <defs>
        <path id="DejaVuSans-32" d="M 1228 531 
L 3431 531 
L 3431 0 
L 469 0 
L 469 531 
Q 828 903 1448 1529 
Q 2069 2156 2228 2338 
Q 2531 2678 2651 2914 
Q 2772 3150 2772 3378 
Q 2772 3750 2511 3984 
Q 2250 4219 1831 4219 
Q 1534 4219 1204 4116 
Q 875 4013 500 3803 
L 500 4441 
Q 881 4594 1212 4672 
Q 1544 4750 1819 4750 
Q 2544 4750 2975 4387 
Q 3406 4025 3406 3419 
Q 3406 3131 3298 2873 
Q 3191 2616 2906 2266 
Q 2828 2175 2409 1742 
Q 1991 1309 1228 531 
z
" transform="scale(0.015625)"/>
        <path id="DejaVuSans-35" d="M 691 4666 
L 3169 4666 
L 3169 4134 
L 1269 4134 
L 1269 2991 
Q 1406 3038 1543 3061 
Q 1681 3084 1819 3084 
Q 2600 3084 3056 2656 
Q 3513 2228 3513 1497 
Q 3513 744 3044 326 
Q 2575 -91 1722 -91 
Q 1428 -91 1123 -41 
Q 819 9 494 109 
L 494 744 
Q 775 591 1075 516 
Q 1375 441 1709 441 
Q 2250 441 2565 725 
Q 2881 1009 2881 1497 
Q 2881 1984 2565 2268 
Q 2250 2553 1709 2553 
Q 1456 2553 1204 2497 
Q 953 2441 691 2322 
L 691 4666 
z
" transform="scale(0.015625)"/>
       </defs>
       <use xlink:href="#DejaVuSans-32"/>
       <use xlink:href="#DejaVuSans-35" x="63.623047"/>
       <use xlink:href="#DejaVuSans-30" x="127.246094"/>
       <use xlink:href="#DejaVuSans-30" x="190.869141"/>
       <use xlink:href="#DejaVuSans-30" x="254.492188"/>
      </g>
     </g>
    </g>
    <g id="xtick_3">
     <g id="line2d_5">
      <path d="M 253.889008 822.04 
L 253.889008 26.88 
" clip-path="url(#pda3d5314aa)" style="fill: none; stroke: #b0b0b0; stroke-width: 0.8; stroke-linecap: square"/>
     </g>
     <g id="line2d_6">
      <g>
       <use xlink:href="#m44c9f471bf" x="253.889008" y="822.04" style="stroke: #000000; stroke-width: 0.8"/>
      </g>
     </g>
     <g id="text_3">
      <!-- 50000 -->
      <g transform="translate(237.982758 836.638438) scale(0.1 -0.1)">
       <use xlink:href="#DejaVuSans-35"/>
       <use xlink:href="#DejaVuSans-30" x="63.623047"/>
       <use xlink:href="#DejaVuSans-30" x="127.246094"/>
       <use xlink:href="#DejaVuSans-30" x="190.869141"/>
       <use xlink:href="#DejaVuSans-30" x="254.492188"/>
      </g>
     </g>
    </g>
    <g id="xtick_4">
     <g id="line2d_7">
      <path d="M 339.865913 822.04 
L 339.865913 26.88 
" clip-path="url(#pda3d5314aa)" style="fill: none; stroke: #b0b0b0; stroke-width: 0.8; stroke-linecap: square"/>
     </g>
     <g id="line2d_8">
      <g>
       <use xlink:href="#m44c9f471bf" x="339.865913" y="822.04" style="stroke: #000000; stroke-width: 0.8"/>
      </g>
     </g>
     <g id="text_4">
      <!-- 75000 -->
      <g transform="translate(323.959663 836.638438) scale(0.1 -0.1)">
       <defs>
        <path id="DejaVuSans-37" d="M 525 4666 
L 3525 4666 
L 3525 4397 
L 1831 0 
L 1172 0 
L 2766 4134 
L 525 4134 
L 525 4666 
z
" transform="scale(0.015625)"/>
       </defs>
       <use xlink:href="#DejaVuSans-37"/>
       <use xlink:href="#DejaVuSans-35" x="63.623047"/>
       <use xlink:href="#DejaVuSans-30" x="127.246094"/>
       <use xlink:href="#DejaVuSans-30" x="190.869141"/>
       <use xlink:href="#DejaVuSans-30" x="254.492188"/>
      </g>
     </g>
    </g>
    <g id="xtick_5">
     <g id="line2d_9">
      <path d="M 425.842819 822.04 
L 425.842819 26.88 
" clip-path="url(#pda3d5314aa)" style="fill: none; stroke: #b0b0b0; stroke-width: 0.8; stroke-linecap: square"/>
     </g>
     <g id="line2d_10">
      <g>
       <use xlink:href="#m44c9f471bf" x="425.842819" y="822.04" style="stroke: #000000; stroke-width: 0.8"/>
      </g>
     </g>
     <g id="text_5">
      <!-- 100000 -->
      <g transform="translate(406.755319 836.638438) scale(0.1 -0.1)">
       <defs>
        <path id="DejaVuSans-31" d="M 794 531 
L 1825 531 
L 1825 4091 
L 703 3866 
L 703 4441 
L 1819 4666 
L 2450 4666 
L 2450 531 
L 3481 531 
L 3481 0 
L 794 0 
L 794 531 
z
" transform="scale(0.015625)"/>
       </defs>
       <use xlink:href="#DejaVuSans-31"/>
       <use xlink:href="#DejaVuSans-30" x="63.623047"/>
       <use xlink:href="#DejaVuSans-30" x="127.246094"/>
       <use xlink:href="#DejaVuSans-30" x="190.869141"/>
       <use xlink:href="#DejaVuSans-30" x="254.492188"/>
       <use xlink:href="#DejaVuSans-30" x="318.115234"/>
      </g>
     </g>
    </g>
    <g id="xtick_6">
     <g id="line2d_11">
      <path d="M 511.819724 822.04 
L 511.819724 26.88 
" clip-path="url(#pda3d5314aa)" style="fill: none; stroke: #b0b0b0; stroke-width: 0.8; stroke-linecap: square"/>
     </g>
     <g id="line2d_12">
      <g>
       <use xlink:href="#m44c9f471bf" x="511.819724" y="822.04" style="stroke: #000000; stroke-width: 0.8"/>
      </g>
     </g>
     <g id="text_6">
      <!-- 125000 -->
      <g transform="translate(492.732224 836.638438) scale(0.1 -0.1)">
       <use xlink:href="#DejaVuSans-31"/>
       <use xlink:href="#DejaVuSans-32" x="63.623047"/>
       <use xlink:href="#DejaVuSans-35" x="127.246094"/>
       <use xlink:href="#DejaVuSans-30" x="190.869141"/>
       <use xlink:href="#DejaVuSans-30" x="254.492188"/>
       <use xlink:href="#DejaVuSans-30" x="318.115234"/>
      </g>
     </g>
    </g>
    <g id="xtick_7">
     <g id="line2d_13">
      <path d="M 597.796629 822.04 
L 597.796629 26.88 
" clip-path="url(#pda3d5314aa)" style="fill: none; stroke: #b0b0b0; stroke-width: 0.8; stroke-linecap: square"/>
     </g>
     <g id="line2d_14">
      <g>
       <use xlink:href="#m44c9f471bf" x="597.796629" y="822.04" style="stroke: #000000; stroke-width: 0.8"/>
      </g>
     </g>
     <g id="text_7">
      <!-- 150000 -->
      <g transform="translate(578.709129 836.638438) scale(0.1 -0.1)">
       <use xlink:href="#DejaVuSans-31"/>
       <use xlink:href="#DejaVuSans-35" x="63.623047"/>
       <use xlink:href="#DejaVuSans-30" x="127.246094"/>
       <use xlink:href="#DejaVuSans-30" x="190.869141"/>
       <use xlink:href="#DejaVuSans-30" x="254.492188"/>
       <use xlink:href="#DejaVuSans-30" x="318.115234"/>
      </g>
     </g>
    </g>
    <g id="xtick_8">
     <g id="line2d_15">
      <path d="M 683.773535 822.04 
L 683.773535 26.88 
" clip-path="url(#pda3d5314aa)" style="fill: none; stroke: #b0b0b0; stroke-width: 0.8; stroke-linecap: square"/>
     </g>
     <g id="line2d_16">
      <g>
       <use xlink:href="#m44c9f471bf" x="683.773535" y="822.04" style="stroke: #000000; stroke-width: 0.8"/>
      </g>
     </g>
     <g id="text_8">
      <!-- 175000 -->
      <g transform="translate(664.686035 836.638438) scale(0.1 -0.1)">
       <use xlink:href="#DejaVuSans-31"/>
       <use xlink:href="#DejaVuSans-37" x="63.623047"/>
       <use xlink:href="#DejaVuSans-35" x="127.246094"/>
       <use xlink:href="#DejaVuSans-30" x="190.869141"/>
       <use xlink:href="#DejaVuSans-30" x="254.492188"/>
       <use xlink:href="#DejaVuSans-30" x="318.115234"/>
      </g>
     </g>
    </g>
    <g id="xtick_9">
     <g id="line2d_17">
      <path d="M 769.75044 822.04 
L 769.75044 26.88 
" clip-path="url(#pda3d5314aa)" style="fill: none; stroke: #b0b0b0; stroke-width: 0.8; stroke-linecap: square"/>
     </g>
     <g id="line2d_18">
      <g>
       <use xlink:href="#m44c9f471bf" x="769.75044" y="822.04" style="stroke: #000000; stroke-width: 0.8"/>
      </g>
     </g>
     <g id="text_9">
      <!-- 200000 -->
      <g transform="translate(750.66294 836.638438) scale(0.1 -0.1)">
       <use xlink:href="#DejaVuSans-32"/>
       <use xlink:href="#DejaVuSans-30" x="63.623047"/>
       <use xlink:href="#DejaVuSans-30" x="127.246094"/>
       <use xlink:href="#DejaVuSans-30" x="190.869141"/>
       <use xlink:href="#DejaVuSans-30" x="254.492188"/>
       <use xlink:href="#DejaVuSans-30" x="318.115234"/>
      </g>
     </g>
    </g>
    <g id="text_10">
     <!-- Input Size -->
     <g transform="translate(399.325 850.316563) scale(0.1 -0.1)">
      <defs>
       <path id="DejaVuSans-49" d="M 628 4666 
L 1259 4666 
L 1259 0 
L 628 0 
L 628 4666 
z
" transform="scale(0.015625)"/>
       <path id="DejaVuSans-6e" d="M 3513 2113 
L 3513 0 
L 2938 0 
L 2938 2094 
Q 2938 2591 2744 2837 
Q 2550 3084 2163 3084 
Q 1697 3084 1428 2787 
Q 1159 2491 1159 1978 
L 1159 0 
L 581 0 
L 581 3500 
L 1159 3500 
L 1159 2956 
Q 1366 3272 1645 3428 
Q 1925 3584 2291 3584 
Q 2894 3584 3203 3211 
Q 3513 2838 3513 2113 
z
" transform="scale(0.015625)"/>
       <path id="DejaVuSans-70" d="M 1159 525 
L 1159 -1331 
L 581 -1331 
L 581 3500 
L 1159 3500 
L 1159 2969 
Q 1341 3281 1617 3432 
Q 1894 3584 2278 3584 
Q 2916 3584 3314 3078 
Q 3713 2572 3713 1747 
Q 3713 922 3314 415 
Q 2916 -91 2278 -91 
Q 1894 -91 1617 61 
Q 1341 213 1159 525 
z
M 3116 1747 
Q 3116 2381 2855 2742 
Q 2594 3103 2138 3103 
Q 1681 3103 1420 2742 
Q 1159 2381 1159 1747 
Q 1159 1113 1420 752 
Q 1681 391 2138 391 
Q 2594 391 2855 752 
Q 3116 1113 3116 1747 
z
" transform="scale(0.015625)"/>
       <path id="DejaVuSans-75" d="M 544 1381 
L 544 3500 
L 1119 3500 
L 1119 1403 
Q 1119 906 1312 657 
Q 1506 409 1894 409 
Q 2359 409 2629 706 
Q 2900 1003 2900 1516 
L 2900 3500 
L 3475 3500 
L 3475 0 
L 2900 0 
L 2900 538 
Q 2691 219 2414 64 
Q 2138 -91 1772 -91 
Q 1169 -91 856 284 
Q 544 659 544 1381 
z
M 1991 3584 
L 1991 3584 
z
" transform="scale(0.015625)"/>
       <path id="DejaVuSans-74" d="M 1172 4494 
L 1172 3500 
L 2356 3500 
L 2356 3053 
L 1172 3053 
L 1172 1153 
Q 1172 725 1289 603 
Q 1406 481 1766 481 
L 2356 481 
L 2356 0 
L 1766 0 
Q 1100 0 847 248 
Q 594 497 594 1153 
L 594 3053 
L 172 3053 
L 172 3500 
L 594 3500 
L 594 4494 
L 1172 4494 
z
" transform="scale(0.015625)"/>
       <path id="DejaVuSans-20" transform="scale(0.015625)"/>
       <path id="DejaVuSans-53" d="M 3425 4513 
L 3425 3897 
Q 3066 4069 2747 4153 
Q 2428 4238 2131 4238 
Q 1616 4238 1336 4038 
Q 1056 3838 1056 3469 
Q 1056 3159 1242 3001 
Q 1428 2844 1947 2747 
L 2328 2669 
Q 3034 2534 3370 2195 
Q 3706 1856 3706 1288 
Q 3706 609 3251 259 
Q 2797 -91 1919 -91 
Q 1588 -91 1214 -16 
Q 841 59 441 206 
L 441 856 
Q 825 641 1194 531 
Q 1563 422 1919 422 
Q 2459 422 2753 634 
Q 3047 847 3047 1241 
Q 3047 1584 2836 1778 
Q 2625 1972 2144 2069 
L 1759 2144 
Q 1053 2284 737 2584 
Q 422 2884 422 3419 
Q 422 4038 858 4394 
Q 1294 4750 2059 4750 
Q 2388 4750 2728 4690 
Q 3069 4631 3425 4513 
z
" transform="scale(0.015625)"/>
       <path id="DejaVuSans-69" d="M 603 3500 
L 1178 3500 
L 1178 0 
L 603 0 
L 603 3500 
z
M 603 4863 
L 1178 4863 
L 1178 4134 
L 603 4134 
L 603 4863 
z
" transform="scale(0.015625)"/>
       <path id="DejaVuSans-7a" d="M 353 3500 
L 3084 3500 
L 3084 2975 
L 922 459 
L 3084 459 
L 3084 0 
L 275 0 
L 275 525 
L 2438 3041 
L 353 3041 
L 353 3500 
z
" transform="scale(0.015625)"/>
       <path id="DejaVuSans-65" d="M 3597 1894 
L 3597 1613 
L 953 1613 
Q 991 1019 1311 708 
Q 1631 397 2203 397 
Q 2534 397 2845 478 
Q 3156 559 3463 722 
L 3463 178 
Q 3153 47 2828 -22 
Q 2503 -91 2169 -91 
Q 1331 -91 842 396 
Q 353 884 353 1716 
Q 353 2575 817 3079 
Q 1281 3584 2069 3584 
Q 2775 3584 3186 3129 
Q 3597 2675 3597 1894 
z
M 3022 2063 
Q 3016 2534 2758 2815 
Q 2500 3097 2075 3097 
Q 1594 3097 1305 2825 
Q 1016 2553 972 2059 
L 3022 2063 
z
" transform="scale(0.015625)"/>
      </defs>
      <use xlink:href="#DejaVuSans-49"/>
      <use xlink:href="#DejaVuSans-6e" x="29.492188"/>
      <use xlink:href="#DejaVuSans-70" x="92.871094"/>
      <use xlink:href="#DejaVuSans-75" x="156.347656"/>
      <use xlink:href="#DejaVuSans-74" x="219.726562"/>
      <use xlink:href="#DejaVuSans-20" x="258.935547"/>
      <use xlink:href="#DejaVuSans-53" x="290.722656"/>
      <use xlink:href="#DejaVuSans-69" x="354.199219"/>
      <use xlink:href="#DejaVuSans-7a" x="381.982422"/>
      <use xlink:href="#DejaVuSans-65" x="434.472656"/>
     </g>
    </g>
   </g>
   <g id="matplotlib.axis_2">
    <g id="ytick_1">
     <g id="line2d_19">
      <path d="M 47.72 785.897449 
L 800.53 785.897449 
" clip-path="url(#pda3d5314aa)" style="fill: none; stroke: #b0b0b0; stroke-width: 0.8; stroke-linecap: square"/>
     </g>
     <g id="line2d_20">
      <defs>
       <path id="mbf38153f9d" d="M 0 0 
L -3.5 0 
" style="stroke: #000000; stroke-width: 0.8"/>
      </defs>
      <g>
       <use xlink:href="#mbf38153f9d" x="47.72" y="785.897449" style="stroke: #000000; stroke-width: 0.8"/>
      </g>
     </g>
     <g id="text_11">
      <!-- 0.0 -->
      <g transform="translate(24.816875 789.696668) scale(0.1 -0.1)">
       <defs>
        <path id="DejaVuSans-2e" d="M 684 794 
L 1344 794 
L 1344 0 
L 684 0 
L 684 794 
z
" transform="scale(0.015625)"/>
       </defs>
       <use xlink:href="#DejaVuSans-30"/>
       <use xlink:href="#DejaVuSans-2e" x="63.623047"/>
       <use xlink:href="#DejaVuSans-30" x="95.410156"/>
      </g>
     </g>
    </g>
    <g id="ytick_2">
     <g id="line2d_21">
      <path d="M 47.72 629.069528 
L 800.53 629.069528 
" clip-path="url(#pda3d5314aa)" style="fill: none; stroke: #b0b0b0; stroke-width: 0.8; stroke-linecap: square"/>
     </g>
     <g id="line2d_22">
      <g>
       <use xlink:href="#mbf38153f9d" x="47.72" y="629.069528" style="stroke: #000000; stroke-width: 0.8"/>
      </g>
     </g>
     <g id="text_12">
      <!-- 0.1 -->
      <g transform="translate(24.816875 632.868747) scale(0.1 -0.1)">
       <use xlink:href="#DejaVuSans-30"/>
       <use xlink:href="#DejaVuSans-2e" x="63.623047"/>
       <use xlink:href="#DejaVuSans-31" x="95.410156"/>
      </g>
     </g>
    </g>
    <g id="ytick_3">
     <g id="line2d_23">
      <path d="M 47.72 472.241607 
L 800.53 472.241607 
" clip-path="url(#pda3d5314aa)" style="fill: none; stroke: #b0b0b0; stroke-width: 0.8; stroke-linecap: square"/>
     </g>
     <g id="line2d_24">
      <g>
       <use xlink:href="#mbf38153f9d" x="47.72" y="472.241607" style="stroke: #000000; stroke-width: 0.8"/>
      </g>
     </g>
     <g id="text_13">
      <!-- 0.2 -->
      <g transform="translate(24.816875 476.040826) scale(0.1 -0.1)">
       <use xlink:href="#DejaVuSans-30"/>
       <use xlink:href="#DejaVuSans-2e" x="63.623047"/>
       <use xlink:href="#DejaVuSans-32" x="95.410156"/>
      </g>
     </g>
    </g>
    <g id="ytick_4">
     <g id="line2d_25">
      <path d="M 47.72 315.413686 
L 800.53 315.413686 
" clip-path="url(#pda3d5314aa)" style="fill: none; stroke: #b0b0b0; stroke-width: 0.8; stroke-linecap: square"/>
     </g>
     <g id="line2d_26">
      <g>
       <use xlink:href="#mbf38153f9d" x="47.72" y="315.413686" style="stroke: #000000; stroke-width: 0.8"/>
      </g>
     </g>
     <g id="text_14">
      <!-- 0.3 -->
      <g transform="translate(24.816875 319.212905) scale(0.1 -0.1)">
       <defs>
        <path id="DejaVuSans-33" d="M 2597 2516 
Q 3050 2419 3304 2112 
Q 3559 1806 3559 1356 
Q 3559 666 3084 287 
Q 2609 -91 1734 -91 
Q 1441 -91 1130 -33 
Q 819 25 488 141 
L 488 750 
Q 750 597 1062 519 
Q 1375 441 1716 441 
Q 2309 441 2620 675 
Q 2931 909 2931 1356 
Q 2931 1769 2642 2001 
Q 2353 2234 1838 2234 
L 1294 2234 
L 1294 2753 
L 1863 2753 
Q 2328 2753 2575 2939 
Q 2822 3125 2822 3475 
Q 2822 3834 2567 4026 
Q 2313 4219 1838 4219 
Q 1578 4219 1281 4162 
Q 984 4106 628 3988 
L 628 4550 
Q 988 4650 1302 4700 
Q 1616 4750 1894 4750 
Q 2613 4750 3031 4423 
Q 3450 4097 3450 3541 
Q 3450 3153 3228 2886 
Q 3006 2619 2597 2516 
z
" transform="scale(0.015625)"/>
       </defs>
       <use xlink:href="#DejaVuSans-30"/>
       <use xlink:href="#DejaVuSans-2e" x="63.623047"/>
       <use xlink:href="#DejaVuSans-33" x="95.410156"/>
      </g>
     </g>
    </g>
    <g id="ytick_5">
     <g id="line2d_27">
      <path d="M 47.72 158.585765 
L 800.53 158.585765 
" clip-path="url(#pda3d5314aa)" style="fill: none; stroke: #b0b0b0; stroke-width: 0.8; stroke-linecap: square"/>
     </g>
     <g id="line2d_28">
      <g>
       <use xlink:href="#mbf38153f9d" x="47.72" y="158.585765" style="stroke: #000000; stroke-width: 0.8"/>
      </g>
     </g>
     <g id="text_15">
      <!-- 0.4 -->
      <g transform="translate(24.816875 162.384984) scale(0.1 -0.1)">
       <defs>
        <path id="DejaVuSans-34" d="M 2419 4116 
L 825 1625 
L 2419 1625 
L 2419 4116 
z
M 2253 4666 
L 3047 4666 
L 3047 1625 
L 3713 1625 
L 3713 1100 
L 3047 1100 
L 3047 0 
L 2419 0 
L 2419 1100 
L 313 1100 
L 313 1709 
L 2253 4666 
z
" transform="scale(0.015625)"/>
       </defs>
       <use xlink:href="#DejaVuSans-30"/>
       <use xlink:href="#DejaVuSans-2e" x="63.623047"/>
       <use xlink:href="#DejaVuSans-34" x="95.410156"/>
      </g>
     </g>
    </g>
    <g id="text_16">
     <!-- Time -->
     <g transform="translate(18.737188 436.693594) rotate(-90) scale(0.1 -0.1)">
      <defs>
       <path id="DejaVuSans-54" d="M -19 4666 
L 3928 4666 
L 3928 4134 
L 2272 4134 
L 2272 0 
L 1638 0 
L 1638 4134 
L -19 4134 
L -19 4666 
z
" transform="scale(0.015625)"/>
       <path id="DejaVuSans-6d" d="M 3328 2828 
Q 3544 3216 3844 3400 
Q 4144 3584 4550 3584 
Q 5097 3584 5394 3201 
Q 5691 2819 5691 2113 
L 5691 0 
L 5113 0 
L 5113 2094 
Q 5113 2597 4934 2840 
Q 4756 3084 4391 3084 
Q 3944 3084 3684 2787 
Q 3425 2491 3425 1978 
L 3425 0 
L 2847 0 
L 2847 2094 
Q 2847 2600 2669 2842 
Q 2491 3084 2119 3084 
Q 1678 3084 1418 2786 
Q 1159 2488 1159 1978 
L 1159 0 
L 581 0 
L 581 3500 
L 1159 3500 
L 1159 2956 
Q 1356 3278 1631 3431 
Q 1906 3584 2284 3584 
Q 2666 3584 2933 3390 
Q 3200 3197 3328 2828 
z
" transform="scale(0.015625)"/>
      </defs>
      <use xlink:href="#DejaVuSans-54"/>
      <use xlink:href="#DejaVuSans-69" x="57.958984"/>
      <use xlink:href="#DejaVuSans-6d" x="85.742188"/>
      <use xlink:href="#DejaVuSans-65" x="183.154297"/>
     </g>
    </g>
   </g>
   <g id="line2d_29">
    <path d="M 81.938636 785.896364 
L 99.130578 785.185571 
L 126.643188 783.917437 
L 130.082264 783.725865 
L 133.52134 783.684366 
L 136.960417 783.368659 
L 140.399493 783.328005 
L 143.838569 783.172986 
L 147.277645 782.756307 
L 150.716722 782.778986 
L 154.155798 782.265435 
L 157.594874 782.575834 
L 161.03395 782.315138 
L 164.473026 782.218749 
L 167.912103 782.007634 
L 171.351179 781.917157 
L 174.790255 781.682035 
L 178.229331 780.898258 
L 181.668407 781.406018 
L 188.54656 781.098274 
L 205.741941 780.140538 
L 209.181017 779.79057 
L 212.620093 780.024485 
L 222.937322 779.28293 
L 226.376398 779.512743 
L 233.254551 778.495533 
L 236.693627 776.597916 
L 240.132703 778.557179 
L 247.010856 777.798856 
L 250.449932 777.889816 
L 253.889008 777.783897 
L 257.328084 777.514394 
L 260.76716 776.542785 
L 264.206237 777.416557 
L 267.645313 776.946074 
L 271.084389 776.841361 
L 274.523465 776.852701 
L 277.962541 776.133584 
L 281.401618 776.261097 
L 284.840694 775.958058 
L 291.718846 776.00969 
L 295.157922 775.860583 
L 298.596999 775.39782 
L 302.036075 775.679025 
L 305.475151 775.102742 
L 308.914227 774.903933 
L 312.353304 775.044837 
L 315.79238 774.544797 
L 322.670532 774.439481 
L 326.109608 773.715418 
L 329.548685 773.28571 
L 332.987761 773.451103 
L 336.426837 773.305856 
L 339.865913 773.023687 
L 343.304989 773.19668 
L 346.744066 773.091002 
L 350.183142 773.221772 
L 353.622218 772.675046 
L 357.061294 772.558631 
L 363.939447 771.971251 
L 367.378523 772.384794 
L 370.817599 771.82528 
L 377.695752 771.397502 
L 381.134828 771.564222 
L 384.573904 771.544317 
L 388.01298 770.41214 
L 394.891133 770.815429 
L 398.330209 770.671147 
L 401.769285 770.71156 
L 405.208361 770.240715 
L 408.647438 770.384393 
L 415.52559 769.63174 
L 418.964666 769.56165 
L 422.403742 769.825483 
L 425.842819 770.233235 
L 429.281895 770.441816 
L 432.720971 769.66588 
L 439.599123 769.640305 
L 443.0382 769.630534 
L 446.477276 769.236172 
L 456.794504 768.62961 
L 460.233581 768.42127 
L 463.672657 768.429835 
L 467.111733 768.310284 
L 470.550809 767.614571 
L 473.989886 767.670908 
L 480.868038 767.269911 
L 484.307114 767.3359 
L 491.185267 767.277753 
L 494.624343 766.76577 
L 498.063419 766.618231 
L 501.502495 766.599774 
L 504.941571 766.087067 
L 508.380648 766.005758 
L 511.819724 766.060165 
L 522.136953 765.620685 
L 525.576029 765.555903 
L 529.015105 764.904584 
L 532.454181 765.077819 
L 535.893257 764.607938 
L 539.332334 764.618675 
L 542.77141 764.4189 
L 546.210486 763.724394 
L 553.088638 763.841532 
L 556.527715 763.655269 
L 559.966791 762.903581 
L 563.405867 763.211929 
L 566.844943 763.268387 
L 570.28402 762.805865 
L 573.723096 762.81636 
L 577.162172 762.620084 
L 580.601248 761.940296 
L 584.040324 761.755842 
L 587.479401 762.221741 
L 590.918477 762.122337 
L 594.357553 761.782502 
L 601.235705 760.975321 
L 604.674782 760.777839 
L 608.113858 760.022169 
L 611.552934 760.496152 
L 614.99201 759.924333 
L 618.431086 759.882472 
L 621.870163 760.305063 
L 625.309239 759.833735 
L 628.748315 759.549273 
L 632.187391 759.014248 
L 635.626468 758.801686 
L 639.065544 759.586067 
L 642.50462 758.961892 
L 645.943696 759.434427 
L 649.382772 758.13939 
L 652.821849 757.760711 
L 659.700001 757.89691 
L 663.139077 757.878694 
L 666.578153 757.157406 
L 670.01723 757.265858 
L 673.456306 756.380022 
L 676.895382 757.133882 
L 680.334458 756.620572 
L 683.773535 756.70924 
L 687.212611 756.287614 
L 690.651687 756.228864 
L 694.090763 755.094636 
L 697.529839 755.609514 
L 700.968916 755.675141 
L 704.407992 754.811139 
L 707.847068 754.960367 
L 711.286144 753.467848 
L 714.72522 754.566247 
L 718.164297 753.633724 
L 721.603373 753.796101 
L 725.042449 753.352278 
L 728.481525 753.388831 
L 731.920602 752.950557 
L 735.359678 753.770405 
L 738.798754 753.012082 
L 742.23783 751.905118 
L 745.676906 751.732125 
L 749.115983 752.295982 
L 752.555059 751.686886 
L 755.994135 752.098258 
L 759.433211 751.507258 
L 762.872287 751.379262 
L 766.311364 751.052095 
L 766.311364 751.052095 
" clip-path="url(#pda3d5314aa)" style="fill: none; stroke: #1b9e77; stroke-width: 1.5; stroke-linecap: square"/>
   </g>
   <g id="line2d_30">
    <path d="M 81.938636 785.889608 
" clip-path="url(#pda3d5314aa)" style="fill: none; stroke: #d95f02; stroke-width: 1.5; stroke-linecap: square"/>
   </g>
   <g id="line2d_31">
    <path d="M 81.938636 785.896002 
L 85.374274 784.262217 
L 88.81335 784.16812 
L 92.252426 781.422304 
L 95.691502 782.122239 
L 99.130578 782.413819 
L 102.569655 782.169167 
L 106.008731 781.554281 
L 109.447807 781.287312 
L 112.886883 779.438069 
L 116.325959 779.694423 
L 119.765036 779.055047 
L 123.204112 779.043104 
L 126.643188 777.613195 
L 130.082264 779.607564 
L 136.960417 778.576963 
L 140.399493 778.129401 
L 143.838569 778.408675 
L 147.277645 778.064739 
L 150.716722 777.565303 
L 154.155798 775.875421 
L 157.594874 777.06285 
L 161.03395 774.773162 
L 164.473026 775.783496 
L 167.912103 775.531848 
L 171.351179 773.078697 
L 174.790255 774.453354 
L 178.229331 773.773686 
L 181.668407 773.927981 
L 185.107484 772.387327 
L 188.54656 772.234842 
L 191.985636 774.038122 
L 195.424712 772.83308 
L 198.863789 772.894967 
L 202.302865 771.972578 
L 212.620093 770.320094 
L 216.05917 766.846838 
L 219.498246 769.341246 
L 222.937322 769.771558 
L 229.815474 768.487982 
L 233.254551 767.951389 
L 236.693627 767.690572 
L 240.132703 767.988545 
L 243.571779 764.164115 
L 247.010856 767.079305 
L 250.449932 766.941659 
L 253.889008 761.62869 
L 257.328084 765.918658 
L 260.76716 765.772808 
L 264.206237 764.909772 
L 271.084389 764.826532 
L 274.523465 764.503949 
L 277.962541 763.713537 
L 281.401618 763.890511 
L 284.840694 762.435872 
L 288.27977 763.165604 
L 291.718846 763.051602 
L 295.157922 761.168823 
L 298.596999 758.500215 
L 302.036075 761.388382 
L 305.475151 760.27225 
L 308.914227 761.147953 
L 312.353304 760.282986 
L 315.79238 759.226811 
L 319.231456 759.235135 
L 322.670532 756.426226 
L 326.109608 758.226248 
L 329.548685 756.81528 
L 332.987761 758.793121 
L 336.426837 756.643855 
L 339.865913 757.761435 
L 343.304989 756.649283 
L 346.744066 756.017026 
L 350.183142 755.732443 
L 353.622218 756.287855 
L 357.061294 753.479429 
L 360.500371 756.188692 
L 363.939447 754.820911 
L 367.378523 753.960167 
L 370.817599 753.5231 
L 374.256675 753.912515 
L 377.695752 753.562186 
L 381.134828 753.423454 
L 384.573904 752.813876 
L 388.01298 751.796062 
L 391.452056 754.193841 
L 394.891133 752.257981 
L 398.330209 751.38831 
L 401.769285 752.060378 
L 405.208361 750.820713 
L 408.647438 749.913524 
L 412.086514 749.445815 
L 415.52559 750.852803 
L 418.964666 749.753439 
L 422.403742 749.269444 
L 425.842819 750.540836 
L 429.281895 741.216813 
L 432.720971 749.301775 
L 439.599123 748.128943 
L 443.0382 747.700079 
L 446.477276 747.670161 
L 449.916352 745.908018 
L 453.355428 734.753813 
L 456.794504 737.82173 
L 460.233581 747.142134 
L 463.672657 745.229919 
L 467.111733 746.185483 
L 470.550809 739.262857 
L 473.989886 744.867646 
L 477.428962 744.386908 
L 480.868038 733.757836 
L 484.307114 743.73571 
L 487.74619 743.350155 
L 491.185267 742.358158 
L 494.624343 740.076432 
L 498.063419 742.66723 
L 501.502495 731.337739 
L 504.941571 742.260563 
L 508.380648 741.582463 
L 511.819724 739.522468 
L 515.2588 741.40573 
L 518.697876 741.018244 
L 522.136953 740.745967 
L 525.576029 738.955233 
L 529.015105 739.654686 
L 532.454181 739.473731 
L 535.893257 739.747818 
L 539.332334 739.339944 
L 542.77141 738.572815 
L 546.210486 734.378392 
L 549.649562 737.41639 
L 553.088638 729.079297 
L 556.527715 737.890493 
L 559.966791 734.742474 
L 563.405867 734.643672 
L 566.844943 735.559668 
L 570.28402 732.727717 
L 573.723096 735.132975 
L 577.162172 735.520581 
L 580.601248 735.258679 
L 584.040324 734.497219 
L 587.479401 722.275016 
L 590.918477 734.290085 
L 594.357553 733.236202 
L 597.796629 730.284459 
L 601.235705 732.064938 
L 604.674782 731.901596 
L 608.113858 730.319564 
L 611.552934 731.759968 
L 614.99201 727.218835 
L 618.431086 730.913701 
L 621.870163 730.365768 
L 625.309239 729.313091 
L 628.748315 730.058868 
L 632.187391 727.969558 
L 635.626468 729.766565 
L 639.065544 728.826924 
L 642.50462 721.698492 
L 645.943696 728.724504 
L 649.382772 726.950539 
L 652.821849 727.791619 
L 656.260925 727.968593 
L 659.700001 727.031607 
L 663.139077 727.985844 
L 666.578153 727.051874 
L 670.01723 727.015803 
L 673.456306 724.676775 
L 676.895382 725.680594 
L 680.334458 725.400958 
L 683.773535 725.792545 
L 687.212611 724.58678 
L 690.651687 722.989186 
L 694.090763 716.918015 
L 697.529839 724.200983 
L 700.968916 724.273365 
L 704.407992 722.870479 
L 707.847068 724.199174 
L 711.286144 722.451749 
L 714.72522 721.915639 
L 718.164297 711.099579 
L 721.603373 722.124702 
L 725.042449 719.331476 
L 728.481525 720.785995 
L 731.920602 720.898187 
L 735.359678 718.492447 
L 738.798754 720.634596 
L 742.23783 719.27719 
L 745.676906 715.346117 
L 749.115983 718.856167 
L 755.994135 719.199017 
L 759.433211 717.614452 
L 762.872287 714.479462 
L 766.311364 718.546854 
L 766.311364 718.546854 
" clip-path="url(#pda3d5314aa)" style="fill: none; stroke: #7570b3; stroke-width: 1.5; stroke-linecap: square"/>
   </g>
   <g id="line2d_32">
    <path d="M 81.938636 785.892262 
L 85.374274 782.18485 
L 88.81335 778.784579 
L 92.252426 774.301714 
L 99.130578 766.764684 
L 102.569655 763.529807 
L 106.008731 759.500053 
L 109.447807 756.225727 
L 112.886883 752.76538 
L 116.325959 747.522622 
L 119.765036 747.144788 
L 123.204112 741.43408 
L 126.643188 737.244844 
L 130.082264 734.250999 
L 133.52134 731.47997 
L 136.960417 727.437067 
L 140.399493 724.002536 
L 143.838569 720.775741 
L 147.277645 716.337631 
L 150.716722 713.158729 
L 154.155798 708.551366 
L 157.594874 706.023542 
L 161.03395 702.582254 
L 164.473026 698.621384 
L 167.912103 694.405488 
L 171.351179 691.799008 
L 174.790255 687.446912 
L 178.229331 685.056734 
L 181.668407 681.741392 
L 188.54656 673.244214 
L 191.985636 671.371085 
L 202.302865 659.693558 
L 205.741941 654.947824 
L 209.181017 652.544497 
L 212.620093 650.386786 
L 216.05917 646.000429 
L 222.937322 639.252848 
L 226.376398 634.922467 
L 229.815474 631.267532 
L 233.254551 628.742964 
L 236.693627 624.159608 
L 240.132703 622.319655 
L 243.571779 618.388823 
L 247.010856 613.700633 
L 250.449932 610.541033 
L 253.889008 607.011681 
L 257.328084 606.17048 
L 260.76716 599.752841 
L 264.206237 593.891457 
L 267.645313 593.372478 
L 271.084389 588.698885 
L 274.523465 586.237169 
L 277.962541 584.285868 
L 281.401618 578.656831 
L 284.840694 576.210195 
L 288.27977 571.351304 
L 291.718846 567.633758 
L 295.157922 562.584744 
L 298.596999 559.23888 
L 302.036075 558.419997 
L 305.475151 552.826549 
L 308.914227 550.414897 
L 312.353304 547.455796 
L 315.79238 541.627226 
L 319.231456 540.963964 
L 322.670532 533.991998 
L 326.109608 530.939644 
L 329.548685 528.333043 
L 332.987761 522.01143 
L 336.426837 520.259904 
L 339.865913 515.385813 
L 343.304989 513.376365 
L 346.744066 508.083784 
L 350.183142 504.667228 
L 353.622218 500.6955 
L 357.061294 497.144554 
L 360.500371 494.689232 
L 363.939447 491.044672 
L 367.378523 485.114284 
L 370.817599 483.030524 
L 377.695752 477.661218 
L 381.134828 472.524259 
L 384.573904 468.909376 
L 388.01298 468.08627 
L 391.452056 459.776321 
L 394.891133 458.5071 
L 398.330209 452.347865 
L 401.769285 453.233339 
L 405.208361 446.75707 
L 408.647438 444.899866 
L 412.086514 441.90602 
L 415.52559 433.669177 
L 418.964666 432.914111 
L 422.403742 429.823394 
L 425.842819 415.070109 
L 429.281895 430.62949 
L 432.720971 421.242494 
L 436.160047 414.607467 
L 439.599123 411.534967 
L 443.0382 406.016433 
L 446.477276 406.846294 
L 449.916352 403.538914 
L 453.355428 402.153641 
L 456.794504 395.334884 
L 460.233581 389.217871 
L 463.672657 388.957657 
L 467.111733 381.768183 
L 470.550809 377.961486 
L 473.989886 372.935393 
L 477.428962 370.090896 
L 480.868038 363.457558 
L 484.307114 363.405081 
L 487.74619 360.776042 
L 491.185267 354.830213 
L 494.624343 350.938829 
L 498.063419 349.252205 
L 501.502495 345.671945 
L 504.941571 336.240555 
L 508.380648 337.70774 
L 511.819724 330.78427 
L 515.2588 327.362043 
L 518.697876 327.663756 
L 522.136953 321.237793 
L 525.576029 312.902268 
L 529.015105 314.54872 
L 532.454181 311.189466 
L 535.893257 305.444738 
L 539.332334 298.378434 
L 542.77141 300.416594 
L 546.210486 297.362913 
L 549.649562 291.146737 
L 553.088638 290.600131 
L 556.527715 281.801843 
L 559.966791 277.488593 
L 563.405867 276.060132 
L 566.844943 269.587964 
L 573.723096 266.475775 
L 577.162172 257.791971 
L 580.601248 259.372555 
L 584.040324 253.891661 
L 587.479401 248.628637 
L 590.918477 247.446637 
L 594.357553 245.825398 
L 597.796629 239.123537 
L 601.235705 233.108101 
L 604.674782 236.043558 
L 608.113858 228.908973 
L 611.552934 230.128974 
L 614.99201 227.485699 
L 618.431086 220.877815 
L 625.309239 211.173786 
L 628.748315 211.898331 
L 632.187391 206.816383 
L 635.626468 201.263468 
L 639.065544 197.023565 
L 642.50462 189.691015 
L 645.943696 191.482593 
L 649.382772 183.404628 
L 652.821849 179.550642 
L 656.260925 175.456106 
L 659.700001 174.564721 
L 663.139077 169.595085 
L 666.578153 169.005171 
L 670.01723 162.99842 
L 673.456306 162.340225 
L 676.895382 151.196878 
L 680.334458 151.252612 
L 683.773535 146.183813 
L 687.212611 143.360307 
L 690.651687 137.698819 
L 694.090763 139.99092 
L 697.529839 135.488269 
L 700.968916 130.301729 
L 704.407992 129.331446 
L 707.847068 125.175386 
L 711.286144 117.594927 
L 714.72522 118.903596 
L 718.164297 110.271787 
L 721.603373 108.621837 
L 725.042449 103.028026 
L 728.481525 101.63262 
L 731.920602 92.975115 
L 735.359678 94.588754 
L 738.798754 89.770276 
L 742.23783 85.906398 
L 745.676906 83.722027 
L 749.115983 75.610283 
L 752.555059 76.681539 
L 755.994135 71.894427 
L 759.433211 68.564367 
L 762.872287 66.830212 
L 766.311364 63.023636 
L 766.311364 63.023636 
" clip-path="url(#pda3d5314aa)" style="fill: none; stroke: #e7298a; stroke-width: 1.5; stroke-linecap: square"/>
   </g>
   <g id="patch_3">
    <path d="M 47.72 822.04 
L 47.72 26.88 
" style="fill: none; stroke: #000000; stroke-width: 0.8; stroke-linejoin: miter; stroke-linecap: square"/>
   </g>
   <g id="patch_4">
    <path d="M 800.53 822.04 
L 800.53 26.88 
" style="fill: none; stroke: #000000; stroke-width: 0.8; stroke-linejoin: miter; stroke-linecap: square"/>
   </g>
   <g id="patch_5">
    <path d="M 47.72 822.04 
L 800.53 822.04 
" style="fill: none; stroke: #000000; stroke-width: 0.8; stroke-linejoin: miter; stroke-linecap: square"/>
   </g>
   <g id="patch_6">
    <path d="M 47.72 26.88 
L 800.53 26.88 
" style="fill: none; stroke: #000000; stroke-width: 0.8; stroke-linejoin: miter; stroke-linecap: square"/>
   </g>
   <g id="text_17">
    <!-- Benchmark -->
    <g transform="translate(389.950312 20.88) scale(0.12 -0.12)">
     <defs>
      <path id="DejaVuSans-42" d="M 1259 2228 
L 1259 519 
L 2272 519 
Q 2781 519 3026 730 
Q 3272 941 3272 1375 
Q 3272 1813 3026 2020 
Q 2781 2228 2272 2228 
L 1259 2228 
z
M 1259 4147 
L 1259 2741 
L 2194 2741 
Q 2656 2741 2882 2914 
Q 3109 3088 3109 3444 
Q 3109 3797 2882 3972 
Q 2656 4147 2194 4147 
L 1259 4147 
z
M 628 4666 
L 2241 4666 
Q 2963 4666 3353 4366 
Q 3744 4066 3744 3513 
Q 3744 3084 3544 2831 
Q 3344 2578 2956 2516 
Q 3422 2416 3680 2098 
Q 3938 1781 3938 1306 
Q 3938 681 3513 340 
Q 3088 0 2303 0 
L 628 0 
L 628 4666 
z
" transform="scale(0.015625)"/>
      <path id="DejaVuSans-63" d="M 3122 3366 
L 3122 2828 
Q 2878 2963 2633 3030 
Q 2388 3097 2138 3097 
Q 1578 3097 1268 2742 
Q 959 2388 959 1747 
Q 959 1106 1268 751 
Q 1578 397 2138 397 
Q 2388 397 2633 464 
Q 2878 531 3122 666 
L 3122 134 
Q 2881 22 2623 -34 
Q 2366 -91 2075 -91 
Q 1284 -91 818 406 
Q 353 903 353 1747 
Q 353 2603 823 3093 
Q 1294 3584 2113 3584 
Q 2378 3584 2631 3529 
Q 2884 3475 3122 3366 
z
" transform="scale(0.015625)"/>
      <path id="DejaVuSans-68" d="M 3513 2113 
L 3513 0 
L 2938 0 
L 2938 2094 
Q 2938 2591 2744 2837 
Q 2550 3084 2163 3084 
Q 1697 3084 1428 2787 
Q 1159 2491 1159 1978 
L 1159 0 
L 581 0 
L 581 4863 
L 1159 4863 
L 1159 2956 
Q 1366 3272 1645 3428 
Q 1925 3584 2291 3584 
Q 2894 3584 3203 3211 
Q 3513 2838 3513 2113 
z
" transform="scale(0.015625)"/>
      <path id="DejaVuSans-61" d="M 2194 1759 
Q 1497 1759 1228 1600 
Q 959 1441 959 1056 
Q 959 750 1161 570 
Q 1363 391 1709 391 
Q 2188 391 2477 730 
Q 2766 1069 2766 1631 
L 2766 1759 
L 2194 1759 
z
M 3341 1997 
L 3341 0 
L 2766 0 
L 2766 531 
Q 2569 213 2275 61 
Q 1981 -91 1556 -91 
Q 1019 -91 701 211 
Q 384 513 384 1019 
Q 384 1609 779 1909 
Q 1175 2209 1959 2209 
L 2766 2209 
L 2766 2266 
Q 2766 2663 2505 2880 
Q 2244 3097 1772 3097 
Q 1472 3097 1187 3025 
Q 903 2953 641 2809 
L 641 3341 
Q 956 3463 1253 3523 
Q 1550 3584 1831 3584 
Q 2591 3584 2966 3190 
Q 3341 2797 3341 1997 
z
" transform="scale(0.015625)"/>
      <path id="DejaVuSans-72" d="M 2631 2963 
Q 2534 3019 2420 3045 
Q 2306 3072 2169 3072 
Q 1681 3072 1420 2755 
Q 1159 2438 1159 1844 
L 1159 0 
L 581 0 
L 581 3500 
L 1159 3500 
L 1159 2956 
Q 1341 3275 1631 3429 
Q 1922 3584 2338 3584 
Q 2397 3584 2469 3576 
Q 2541 3569 2628 3553 
L 2631 2963 
z
" transform="scale(0.015625)"/>
      <path id="DejaVuSans-6b" d="M 581 4863 
L 1159 4863 
L 1159 1991 
L 2875 3500 
L 3609 3500 
L 1753 1863 
L 3688 0 
L 2938 0 
L 1159 1709 
L 1159 0 
L 581 0 
L 581 4863 
z
" transform="scale(0.015625)"/>
     </defs>
     <use xlink:href="#DejaVuSans-42"/>
     <use xlink:href="#DejaVuSans-65" x="68.603516"/>
     <use xlink:href="#DejaVuSans-6e" x="130.126953"/>
     <use xlink:href="#DejaVuSans-63" x="193.505859"/>
     <use xlink:href="#DejaVuSans-68" x="248.486328"/>
     <use xlink:href="#DejaVuSans-6d" x="311.865234"/>
     <use xlink:href="#DejaVuSans-61" x="409.277344"/>
     <use xlink:href="#DejaVuSans-72" x="470.556641"/>
     <use xlink:href="#DejaVuSans-6b" x="511.669922"/>
    </g>
   </g>
   <g id="legend_1">
    <g id="patch_7">
     <path d="M 54.72 123.505 
L 202.355938 123.505 
Q 204.355938 123.505 204.355938 121.505 
L 204.355938 33.88 
Q 204.355938 31.88 202.355938 31.88 
L 54.72 31.88 
Q 52.72 31.88 52.72 33.88 
L 52.72 121.505 
Q 52.72 123.505 54.72 123.505 
z
" style="fill: #ffffff; opacity: 0.8; stroke: #cccccc; stroke-linejoin: miter"/>
    </g>
    <g id="line2d_33">
     <path d="M 56.72 39.978438 
L 66.72 39.978438 
L 76.72 39.978438 
" style="fill: none; stroke: #000000; stroke-width: 2; stroke-linecap: square"/>
    </g>
    <g id="text_18">
     <!-- Time -->
     <g transform="translate(84.72 43.478438) scale(0.1 -0.1)">
      <use xlink:href="#DejaVuSans-54"/>
      <use xlink:href="#DejaVuSans-69" x="57.958984"/>
      <use xlink:href="#DejaVuSans-6d" x="85.742188"/>
      <use xlink:href="#DejaVuSans-65" x="183.154297"/>
     </g>
    </g>
    <g id="line2d_34">
     <path d="M 56.72 54.656563 
L 66.72 54.656563 
L 76.72 54.656563 
" style="fill: none; stroke-dasharray: 12.8,3.2,2,3.2; stroke-dashoffset: 0; stroke: #000000; stroke-width: 2"/>
    </g>
    <g id="text_19">
     <!-- Solution -->
     <g transform="translate(84.72 58.156563) scale(0.1 -0.1)">
      <defs>
       <path id="DejaVuSans-6f" d="M 1959 3097 
Q 1497 3097 1228 2736 
Q 959 2375 959 1747 
Q 959 1119 1226 758 
Q 1494 397 1959 397 
Q 2419 397 2687 759 
Q 2956 1122 2956 1747 
Q 2956 2369 2687 2733 
Q 2419 3097 1959 3097 
z
M 1959 3584 
Q 2709 3584 3137 3096 
Q 3566 2609 3566 1747 
Q 3566 888 3137 398 
Q 2709 -91 1959 -91 
Q 1206 -91 779 398 
Q 353 888 353 1747 
Q 353 2609 779 3096 
Q 1206 3584 1959 3584 
z
" transform="scale(0.015625)"/>
       <path id="DejaVuSans-6c" d="M 603 4863 
L 1178 4863 
L 1178 0 
L 603 0 
L 603 4863 
z
" transform="scale(0.015625)"/>
      </defs>
      <use xlink:href="#DejaVuSans-53"/>
      <use xlink:href="#DejaVuSans-6f" x="63.476562"/>
      <use xlink:href="#DejaVuSans-6c" x="124.658203"/>
      <use xlink:href="#DejaVuSans-75" x="152.441406"/>
      <use xlink:href="#DejaVuSans-74" x="215.820312"/>
      <use xlink:href="#DejaVuSans-69" x="255.029297"/>
      <use xlink:href="#DejaVuSans-6f" x="282.8125"/>
      <use xlink:href="#DejaVuSans-6e" x="343.994141"/>
     </g>
    </g>
    <g id="line2d_35">
     <path d="M 56.72 69.334688 
L 66.72 69.334688 
L 76.72 69.334688 
" style="fill: none; stroke: #1b9e77; stroke-width: 1.5; stroke-linecap: square"/>
    </g>
    <g id="text_20">
     <!-- greedy -->
     <g transform="translate(84.72 72.834688) scale(0.1 -0.1)">
      <defs>
       <path id="DejaVuSans-67" d="M 2906 1791 
Q 2906 2416 2648 2759 
Q 2391 3103 1925 3103 
Q 1463 3103 1205 2759 
Q 947 2416 947 1791 
Q 947 1169 1205 825 
Q 1463 481 1925 481 
Q 2391 481 2648 825 
Q 2906 1169 2906 1791 
z
M 3481 434 
Q 3481 -459 3084 -895 
Q 2688 -1331 1869 -1331 
Q 1566 -1331 1297 -1286 
Q 1028 -1241 775 -1147 
L 775 -588 
Q 1028 -725 1275 -790 
Q 1522 -856 1778 -856 
Q 2344 -856 2625 -561 
Q 2906 -266 2906 331 
L 2906 616 
Q 2728 306 2450 153 
Q 2172 0 1784 0 
Q 1141 0 747 490 
Q 353 981 353 1791 
Q 353 2603 747 3093 
Q 1141 3584 1784 3584 
Q 2172 3584 2450 3431 
Q 2728 3278 2906 2969 
L 2906 3500 
L 3481 3500 
L 3481 434 
z
" transform="scale(0.015625)"/>
       <path id="DejaVuSans-64" d="M 2906 2969 
L 2906 4863 
L 3481 4863 
L 3481 0 
L 2906 0 
L 2906 525 
Q 2725 213 2448 61 
Q 2172 -91 1784 -91 
Q 1150 -91 751 415 
Q 353 922 353 1747 
Q 353 2572 751 3078 
Q 1150 3584 1784 3584 
Q 2172 3584 2448 3432 
Q 2725 3281 2906 2969 
z
M 947 1747 
Q 947 1113 1208 752 
Q 1469 391 1925 391 
Q 2381 391 2643 752 
Q 2906 1113 2906 1747 
Q 2906 2381 2643 2742 
Q 2381 3103 1925 3103 
Q 1469 3103 1208 2742 
Q 947 2381 947 1747 
z
" transform="scale(0.015625)"/>
       <path id="DejaVuSans-79" d="M 2059 -325 
Q 1816 -950 1584 -1140 
Q 1353 -1331 966 -1331 
L 506 -1331 
L 506 -850 
L 844 -850 
Q 1081 -850 1212 -737 
Q 1344 -625 1503 -206 
L 1606 56 
L 191 3500 
L 800 3500 
L 1894 763 
L 2988 3500 
L 3597 3500 
L 2059 -325 
z
" transform="scale(0.015625)"/>
      </defs>
      <use xlink:href="#DejaVuSans-67"/>
      <use xlink:href="#DejaVuSans-72" x="63.476562"/>
      <use xlink:href="#DejaVuSans-65" x="102.339844"/>
      <use xlink:href="#DejaVuSans-65" x="163.863281"/>
      <use xlink:href="#DejaVuSans-64" x="225.386719"/>
      <use xlink:href="#DejaVuSans-79" x="288.863281"/>
     </g>
    </g>
    <g id="line2d_36">
     <path d="M 56.72 84.012812 
L 66.72 84.012812 
L 76.72 84.012812 
" style="fill: none; stroke: #d95f02; stroke-width: 1.5; stroke-linecap: square"/>
    </g>
    <g id="text_21">
     <!-- backtracking -->
     <g transform="translate(84.72 87.512812) scale(0.1 -0.1)">
      <defs>
       <path id="DejaVuSans-62" d="M 3116 1747 
Q 3116 2381 2855 2742 
Q 2594 3103 2138 3103 
Q 1681 3103 1420 2742 
Q 1159 2381 1159 1747 
Q 1159 1113 1420 752 
Q 1681 391 2138 391 
Q 2594 391 2855 752 
Q 3116 1113 3116 1747 
z
M 1159 2969 
Q 1341 3281 1617 3432 
Q 1894 3584 2278 3584 
Q 2916 3584 3314 3078 
Q 3713 2572 3713 1747 
Q 3713 922 3314 415 
Q 2916 -91 2278 -91 
Q 1894 -91 1617 61 
Q 1341 213 1159 525 
L 1159 0 
L 581 0 
L 581 4863 
L 1159 4863 
L 1159 2969 
z
" transform="scale(0.015625)"/>
      </defs>
      <use xlink:href="#DejaVuSans-62"/>
      <use xlink:href="#DejaVuSans-61" x="63.476562"/>
      <use xlink:href="#DejaVuSans-63" x="124.755859"/>
      <use xlink:href="#DejaVuSans-6b" x="179.736328"/>
      <use xlink:href="#DejaVuSans-74" x="237.646484"/>
      <use xlink:href="#DejaVuSans-72" x="276.855469"/>
      <use xlink:href="#DejaVuSans-61" x="317.96875"/>
      <use xlink:href="#DejaVuSans-63" x="379.248047"/>
      <use xlink:href="#DejaVuSans-6b" x="434.228516"/>
      <use xlink:href="#DejaVuSans-69" x="492.138672"/>
      <use xlink:href="#DejaVuSans-6e" x="519.921875"/>
      <use xlink:href="#DejaVuSans-67" x="583.300781"/>
     </g>
    </g>
    <g id="line2d_37">
     <path d="M 56.72 98.690938 
L 66.72 98.690938 
L 76.72 98.690938 
" style="fill: none; stroke: #7570b3; stroke-width: 1.5; stroke-linecap: square"/>
    </g>
    <g id="text_22">
     <!-- branch_and_bound -->
     <g transform="translate(84.72 102.190938) scale(0.1 -0.1)">
      <defs>
       <path id="DejaVuSans-5f" d="M 3263 -1063 
L 3263 -1509 
L -63 -1509 
L -63 -1063 
L 3263 -1063 
z
" transform="scale(0.015625)"/>
      </defs>
      <use xlink:href="#DejaVuSans-62"/>
      <use xlink:href="#DejaVuSans-72" x="63.476562"/>
      <use xlink:href="#DejaVuSans-61" x="104.589844"/>
      <use xlink:href="#DejaVuSans-6e" x="165.869141"/>
      <use xlink:href="#DejaVuSans-63" x="229.248047"/>
      <use xlink:href="#DejaVuSans-68" x="284.228516"/>
      <use xlink:href="#DejaVuSans-5f" x="347.607422"/>
      <use xlink:href="#DejaVuSans-61" x="397.607422"/>
      <use xlink:href="#DejaVuSans-6e" x="458.886719"/>
      <use xlink:href="#DejaVuSans-64" x="522.265625"/>
      <use xlink:href="#DejaVuSans-5f" x="585.742188"/>
      <use xlink:href="#DejaVuSans-62" x="635.742188"/>
      <use xlink:href="#DejaVuSans-6f" x="699.21875"/>
      <use xlink:href="#DejaVuSans-75" x="760.400391"/>
      <use xlink:href="#DejaVuSans-6e" x="823.779297"/>
      <use xlink:href="#DejaVuSans-64" x="887.158203"/>
     </g>
    </g>
    <g id="line2d_38">
     <path d="M 56.72 113.647188 
L 66.72 113.647188 
L 76.72 113.647188 
" style="fill: none; stroke: #e7298a; stroke-width: 1.5; stroke-linecap: square"/>
    </g>
    <g id="text_23">
     <!-- dynamic_programming -->
     <g transform="translate(84.72 117.147188) scale(0.1 -0.1)">
      <use xlink:href="#DejaVuSans-64"/>
      <use xlink:href="#DejaVuSans-79" x="63.476562"/>
      <use xlink:href="#DejaVuSans-6e" x="122.65625"/>
      <use xlink:href="#DejaVuSans-61" x="186.035156"/>
      <use xlink:href="#DejaVuSans-6d" x="247.314453"/>
      <use xlink:href="#DejaVuSans-69" x="344.726562"/>
      <use xlink:href="#DejaVuSans-63" x="372.509766"/>
      <use xlink:href="#DejaVuSans-5f" x="427.490234"/>
      <use xlink:href="#DejaVuSans-70" x="477.490234"/>
      <use xlink:href="#DejaVuSans-72" x="540.966797"/>
      <use xlink:href="#DejaVuSans-6f" x="579.830078"/>
      <use xlink:href="#DejaVuSans-67" x="641.011719"/>
      <use xlink:href="#DejaVuSans-72" x="704.488281"/>
      <use xlink:href="#DejaVuSans-61" x="745.601562"/>
      <use xlink:href="#DejaVuSans-6d" x="806.880859"/>
      <use xlink:href="#DejaVuSans-6d" x="904.292969"/>
      <use xlink:href="#DejaVuSans-69" x="1001.705078"/>
      <use xlink:href="#DejaVuSans-6e" x="1029.488281"/>
      <use xlink:href="#DejaVuSans-67" x="1092.867188"/>
     </g>
    </g>
   </g>
  </g>
  <g id="axes_2">
   <g id="matplotlib.axis_3">
    <g id="ytick_6">
     <g id="line2d_39">
      <defs>
       <path id="m6ed76a0ff3" d="M 0 0 
L 3.5 0 
" style="stroke: #000000; stroke-width: 0.8"/>
      </defs>
      <g>
       <use xlink:href="#m6ed76a0ff3" x="800.53" y="785.942861" style="stroke: #000000; stroke-width: 0.8"/>
      </g>
     </g>
     <g id="text_24">
      <!-- 0 -->
      <g transform="translate(807.53 789.742079) scale(0.1 -0.1)">
       <use xlink:href="#DejaVuSans-30"/>
      </g>
     </g>
    </g>
    <g id="ytick_7">
     <g id="line2d_40">
      <g>
       <use xlink:href="#m6ed76a0ff3" x="800.53" y="630.952996" style="stroke: #000000; stroke-width: 0.8"/>
      </g>
     </g>
     <g id="text_25">
      <!-- 10000 -->
      <g transform="translate(807.53 634.752215) scale(0.1 -0.1)">
       <use xlink:href="#DejaVuSans-31"/>
       <use xlink:href="#DejaVuSans-30" x="63.623047"/>
       <use xlink:href="#DejaVuSans-30" x="127.246094"/>
       <use xlink:href="#DejaVuSans-30" x="190.869141"/>
       <use xlink:href="#DejaVuSans-30" x="254.492188"/>
      </g>
     </g>
    </g>
    <g id="ytick_8">
     <g id="line2d_41">
      <g>
       <use xlink:href="#m6ed76a0ff3" x="800.53" y="475.963132" style="stroke: #000000; stroke-width: 0.8"/>
      </g>
     </g>
     <g id="text_26">
      <!-- 20000 -->
      <g transform="translate(807.53 479.762351) scale(0.1 -0.1)">
       <use xlink:href="#DejaVuSans-32"/>
       <use xlink:href="#DejaVuSans-30" x="63.623047"/>
       <use xlink:href="#DejaVuSans-30" x="127.246094"/>
       <use xlink:href="#DejaVuSans-30" x="190.869141"/>
       <use xlink:href="#DejaVuSans-30" x="254.492188"/>
      </g>
     </g>
    </g>
    <g id="ytick_9">
     <g id="line2d_42">
      <g>
       <use xlink:href="#m6ed76a0ff3" x="800.53" y="320.973268" style="stroke: #000000; stroke-width: 0.8"/>
      </g>
     </g>
     <g id="text_27">
      <!-- 30000 -->
      <g transform="translate(807.53 324.772486) scale(0.1 -0.1)">
       <use xlink:href="#DejaVuSans-33"/>
       <use xlink:href="#DejaVuSans-30" x="63.623047"/>
       <use xlink:href="#DejaVuSans-30" x="127.246094"/>
       <use xlink:href="#DejaVuSans-30" x="190.869141"/>
       <use xlink:href="#DejaVuSans-30" x="254.492188"/>
      </g>
     </g>
    </g>
    <g id="ytick_10">
     <g id="line2d_43">
      <g>
       <use xlink:href="#m6ed76a0ff3" x="800.53" y="165.983403" style="stroke: #000000; stroke-width: 0.8"/>
      </g>
     </g>
     <g id="text_28">
      <!-- 40000 -->
      <g transform="translate(807.53 169.782622) scale(0.1 -0.1)">
       <use xlink:href="#DejaVuSans-34"/>
       <use xlink:href="#DejaVuSans-30" x="63.623047"/>
       <use xlink:href="#DejaVuSans-30" x="127.246094"/>
       <use xlink:href="#DejaVuSans-30" x="190.869141"/>
       <use xlink:href="#DejaVuSans-30" x="254.492188"/>
      </g>
     </g>
    </g>
    <g id="text_29">
     <!-- Solution -->
     <g transform="translate(850.940938 444.82875) rotate(-90) scale(0.1 -0.1)">
      <use xlink:href="#DejaVuSans-53"/>
      <use xlink:href="#DejaVuSans-6f" x="63.476562"/>
      <use xlink:href="#DejaVuSans-6c" x="124.658203"/>
      <use xlink:href="#DejaVuSans-75" x="152.441406"/>
      <use xlink:href="#DejaVuSans-74" x="215.820312"/>
      <use xlink:href="#DejaVuSans-69" x="255.029297"/>
      <use xlink:href="#DejaVuSans-6f" x="282.8125"/>
      <use xlink:href="#DejaVuSans-6e" x="343.994141"/>
     </g>
    </g>
   </g>
   <g id="line2d_44">
    <path d="M 81.938636 785.896364 
L 85.374274 679.52682 
L 88.81335 632.812875 
L 92.252426 602.171378 
L 95.691502 576.815037 
L 99.130578 566.864687 
L 102.569655 530.814045 
L 106.008731 519.747769 
L 109.447807 503.380839 
L 112.886883 490.268696 
L 116.325959 479.248917 
L 119.765036 462.014044 
L 123.204112 450.250313 
L 126.643188 451.784713 
L 130.082264 434.23986 
L 133.52134 416.059549 
L 136.960417 414.726637 
L 140.399493 396.530826 
L 143.838569 406.899648 
L 147.277645 387.045447 
L 150.716722 382.690232 
L 154.155798 359.844726 
L 157.594874 369.221612 
L 161.03395 361.503117 
L 164.473026 357.085906 
L 167.912103 349.584397 
L 171.351179 332.582008 
L 174.790255 330.102171 
L 178.229331 326.568402 
L 181.668407 321.190253 
L 185.107484 326.816385 
L 188.54656 312.8363 
L 191.985636 308.837561 
L 195.424712 305.102305 
L 198.863789 291.447698 
L 202.302865 306.915687 
L 205.741941 286.705009 
L 209.181017 285.418593 
L 212.620093 283.589712 
L 216.05917 280.319426 
L 219.498246 273.205391 
L 222.937322 274.693294 
L 226.376398 266.990298 
L 229.815474 255.722535 
L 233.254551 258.419358 
L 236.693627 247.368581 
L 240.132703 263.487527 
L 243.571779 254.033145 
L 247.010856 244.904242 
L 250.449932 239.448599 
L 253.889008 232.08658 
L 257.328084 234.907396 
L 260.76716 225.82499 
L 264.206237 221.934744 
L 267.645313 213.394803 
L 271.084389 221.113298 
L 274.523465 226.227964 
L 277.962541 211.705413 
L 281.401618 209.101584 
L 284.840694 198.918749 
L 288.27977 194.517037 
L 291.718846 190.580295 
L 295.157922 197.167364 
L 298.596999 192.95164 
L 302.036075 190.580295 
L 305.475151 197.182863 
L 308.914227 184.783674 
L 312.353304 198.329788 
L 315.79238 173.82589 
L 319.231456 175.902755 
L 322.670532 173.701898 
L 326.109608 177.700637 
L 329.548685 160.233279 
L 332.987761 159.861304 
L 336.426837 165.161957 
L 339.865913 151.135374 
L 343.304989 166.014401 
L 346.744066 162.403137 
L 350.183142 157.861934 
L 353.622218 146.966147 
L 357.061294 152.716271 
L 360.500371 143.184394 
L 363.939447 150.220934 
L 367.378523 144.811788 
L 370.817599 137.000299 
L 374.256675 130.10325 
L 377.695752 144.842786 
L 381.134828 133.62152 
L 384.573904 131.420663 
L 388.01298 143.71136 
L 391.452056 135.558893 
L 394.891133 138.457203 
L 401.769285 128.227872 
L 405.208361 127.747404 
L 412.086514 127.561416 
L 415.52559 129.824268 
L 418.964666 127.483921 
L 422.403742 125.407057 
L 425.842819 115.363714 
L 429.281895 114.991738 
L 432.720971 117.921046 
L 436.160047 115.844182 
L 439.599123 122.694734 
L 443.0382 114.511269 
L 446.477276 112.20192 
L 449.916352 119.036973 
L 453.355428 115.394712 
L 456.794504 112.031431 
L 463.672657 110.094058 
L 467.111733 115.735689 
L 470.550809 108.714648 
L 473.989886 116.960109 
L 477.428962 103.785971 
L 480.868038 104.746908 
L 484.307114 105.909332 
L 487.74619 97.245398 
L 491.185267 107.056257 
L 494.624343 99.089778 
L 498.063419 97.927354 
L 501.502495 100.205705 
L 504.941571 107.660717 
L 508.380648 92.812688 
L 511.819724 97.229899 
L 515.2588 96.113972 
L 518.697876 99.802731 
L 522.136953 98.299329 
L 525.576029 89.604398 
L 529.015105 92.735193 
L 532.454181 99.492751 
L 535.893257 92.192729 
L 539.332334 93.541141 
L 542.77141 91.355784 
L 546.210486 87.450039 
L 549.649562 89.960875 
L 553.088638 90.472341 
L 556.527715 88.224988 
L 559.966791 90.19336 
L 563.405867 89.697392 
L 566.844943 84.722217 
L 570.28402 87.977005 
L 573.723096 92.471711 
L 577.162172 84.055761 
L 580.601248 83.280812 
L 584.040324 82.970832 
L 587.479401 86.706088 
L 590.918477 79.344069 
L 594.357553 79.17358 
L 597.796629 78.491625 
L 601.235705 81.327939 
L 604.674782 83.296311 
L 608.113858 84.241749 
L 611.552934 86.070629 
L 614.99201 79.79354 
L 618.431086 79.096085 
L 621.870163 78.72411 
L 625.309239 76.631746 
L 628.748315 74.167408 
L 632.187391 82.149386 
L 635.626468 76.213274 
L 639.065544 75.391828 
L 642.50462 72.896491 
L 645.943696 76.259771 
L 649.382772 73.144475 
L 652.821849 79.32857 
L 656.260925 75.639811 
L 659.700001 74.368894 
L 663.139077 71.889057 
L 666.578153 73.407957 
L 670.01723 74.027917 
L 673.456306 74.802866 
L 676.895382 72.942988 
L 680.334458 70.835126 
L 683.773535 75.004353 
L 687.212611 71.780564 
L 690.651687 67.70433 
L 694.090763 71.703069 
L 697.529839 72.323028 
L 700.968916 69.579708 
L 704.407992 68.293292 
L 707.847068 69.455716 
L 711.286144 71.145105 
L 714.72522 68.138302 
L 718.164297 64.248056 
L 721.603373 63.023636 
L 725.042449 64.868016 
L 728.481525 67.611336 
L 731.920602 66.510908 
L 735.359678 64.80602 
L 738.798754 66.138933 
L 742.23783 64.310052 
L 745.676906 68.975247 
L 749.115983 67.378852 
L 752.555059 65.937446 
L 755.994135 66.510908 
L 759.433211 68.107304 
L 762.872287 63.287119 
L 766.311364 63.054634 
L 766.311364 63.054634 
" clip-path="url(#pda3d5314aa)" style="fill: none; stroke-dasharray: 9.6,2.4,1.5,2.4; stroke-dashoffset: 0; stroke: #1b9e77; stroke-width: 1.5"/>
   </g>
   <g id="line2d_45">
    <path d="M 81.938636 785.896364 
" clip-path="url(#pda3d5314aa)" style="fill: none; stroke-dasharray: 9.6,2.4,1.5,2.4; stroke-dashoffset: 0; stroke: #d95f02; stroke-width: 1.5"/>
   </g>
   <g id="line2d_46">
    <path d="M 81.938636 785.896364 
L 85.374274 743.568632 
L 88.81335 749.520242 
L 92.252426 745.056534 
L 95.691502 748.993277 
L 99.130578 748.6368 
L 102.569655 745.227023 
L 106.008731 737.880504 
L 109.447807 746.854417 
L 112.886883 750.093705 
L 116.325959 742.158224 
L 119.765036 741.894741 
L 123.204112 746.265455 
L 126.643188 742.917674 
L 130.082264 748.34232 
L 133.52134 751.891587 
L 136.960417 739.693885 
L 140.399493 745.475007 
L 143.838569 751.023644 
L 147.277645 740.546329 
L 150.716722 744.173092 
L 154.155798 741.832745 
L 157.594874 746.34295 
L 161.03395 738.267978 
L 164.473026 746.590934 
L 167.912103 747.458877 
L 171.351179 738.422968 
L 174.790255 748.18733 
L 178.229331 743.801116 
L 181.668407 747.489875 
L 185.107484 742.483703 
L 188.54656 740.546329 
L 191.985636 751.287127 
L 195.424712 743.258652 
L 198.863789 750.527677 
L 202.302865 747.892849 
L 205.741941 749.458247 
L 209.181017 751.318125 
L 212.620093 745.614498 
L 216.05917 736.470096 
L 219.498246 748.590303 
L 222.937322 746.49794 
L 226.376398 748.745293 
L 229.815474 742.127226 
L 233.254551 742.716187 
L 236.693627 751.659103 
L 240.132703 750.837656 
L 243.571779 736.594088 
L 247.010856 743.909609 
L 250.449932 748.512808 
L 253.889008 739.120423 
L 257.328084 747.102401 
L 260.76716 748.34232 
L 264.206237 748.48181 
L 267.645313 747.56737 
L 271.084389 749.830222 
L 274.523465 746.110465 
L 277.962541 743.615129 
L 281.401618 750.1712 
L 284.840694 741.817246 
L 288.27977 736.501094 
L 291.718846 750.093705 
L 295.157922 741.956737 
L 298.596999 735.431664 
L 302.036075 745.056534 
L 305.475151 744.82405 
L 308.914227 746.885415 
L 312.353304 749.41175 
L 315.79238 742.778183 
L 319.231456 749.907717 
L 322.670532 739.073926 
L 326.109608 750.558675 
L 329.548685 735.850136 
L 332.987761 748.838287 
L 336.426837 733.122315 
L 339.865913 749.489245 
L 343.304989 748.884784 
L 346.744066 736.237611 
L 350.183142 740.623824 
L 353.622218 748.047839 
L 357.061294 735.478161 
L 360.500371 748.900283 
L 363.939447 744.839549 
L 367.378523 742.096228 
L 370.817599 740.019364 
L 374.256675 746.947411 
L 377.695752 742.421707 
L 381.134828 746.699427 
L 384.573904 740.670321 
L 388.01298 736.299607 
L 391.452056 746.435944 
L 394.891133 747.179896 
L 398.330209 741.724252 
L 401.769285 740.468834 
L 405.208361 742.003234 
L 408.647438 741.770749 
L 412.086514 736.423599 
L 415.52559 744.0491 
L 418.964666 746.730425 
L 422.403742 744.126595 
L 425.842819 749.954214 
L 429.281895 738.763946 
L 432.720971 744.188591 
L 436.160047 744.281585 
L 439.599123 743.568632 
L 443.0382 748.001342 
L 446.477276 747.334885 
L 449.916352 742.716187 
L 453.355428 735.152682 
L 456.794504 735.214678 
L 460.233581 744.870547 
L 463.672657 739.383905 
L 467.111733 747.551871 
L 470.550809 738.732948 
L 473.989886 740.964802 
L 477.428962 742.685189 
L 480.868038 738.70195 
L 484.307114 742.328713 
L 487.74619 744.219589 
L 491.185267 748.001342 
L 494.624343 739.027429 
L 498.063419 741.522765 
L 501.502495 735.819138 
L 504.941571 749.334255 
L 508.380648 744.901545 
L 511.819724 730.425491 
L 515.2588 745.877981 
L 518.697876 749.070772 
L 522.136953 749.039774 
L 525.576029 746.513439 
L 529.015105 746.869916 
L 532.454181 748.6368 
L 535.893257 749.148267 
L 539.332334 747.551871 
L 542.77141 743.909609 
L 546.210486 739.151421 
L 549.649562 746.761423 
L 553.088638 739.290911 
L 556.527715 750.465681 
L 559.966791 740.608325 
L 563.405867 734.703211 
L 566.844943 743.506636 
L 570.28402 742.762684 
L 573.723096 743.274151 
L 580.601248 749.566739 
L 584.040324 742.328713 
L 587.479401 731.649911 
L 590.918477 749.396251 
L 594.357553 743.305149 
L 597.796629 740.871808 
L 601.235705 742.66969 
L 604.674782 741.522765 
L 608.113858 738.205982 
L 611.552934 744.188591 
L 614.99201 740.453335 
L 618.431086 740.096859 
L 621.870163 749.70623 
L 625.309239 744.607064 
L 628.748315 744.142094 
L 632.187391 738.050993 
L 635.626468 748.249326 
L 639.065544 744.033601 
L 642.50462 736.702581 
L 645.943696 743.041666 
L 649.382772 741.538264 
L 652.821849 746.792421 
L 656.260925 749.675232 
L 659.700001 742.297715 
L 663.139077 745.970975 
L 666.578153 739.492398 
L 670.01723 743.847613 
L 673.456306 738.329974 
L 676.895382 744.653561 
L 680.334458 748.280324 
L 683.773535 745.444009 
L 687.212611 747.923847 
L 690.651687 740.034863 
L 694.090763 736.935065 
L 697.529839 748.388816 
L 700.968916 749.55124 
L 704.407992 745.645496 
L 707.847068 746.358449 
L 711.286144 745.320017 
L 714.72522 741.646757 
L 718.164297 737.32254 
L 721.603373 747.427879 
L 725.042449 734.207244 
L 728.481525 747.381382 
L 731.920602 747.071403 
L 735.359678 743.320648 
L 738.798754 746.96291 
L 742.23783 736.361603 
L 745.676906 740.608325 
L 749.115983 747.365883 
L 752.555059 740.592826 
L 755.994135 748.962279 
L 759.433211 745.722991 
L 762.872287 740.158855 
L 766.311364 749.721729 
L 766.311364 749.721729 
" clip-path="url(#pda3d5314aa)" style="fill: none; stroke-dasharray: 9.6,2.4,1.5,2.4; stroke-dashoffset: 0; stroke: #7570b3; stroke-width: 1.5"/>
   </g>
   <g id="line2d_47">
    <path d="M 81.938636 785.896364 
L 85.374274 679.356331 
L 88.81335 632.657885 
L 92.252426 601.969892 
L 95.691502 576.706544 
L 99.130578 566.632203 
L 102.569655 530.395572 
L 106.008731 519.437789 
L 109.447807 503.380839 
L 112.886883 490.098208 
L 116.325959 478.89244 
L 119.765036 461.828056 
L 123.204112 450.048827 
L 126.643188 451.211251 
L 130.082264 434.23986 
L 133.52134 415.842564 
L 136.960417 414.261667 
L 140.399493 396.298342 
L 143.838569 406.899648 
L 147.277645 386.797463 
L 150.716722 382.442248 
L 154.155798 359.844726 
L 157.594874 368.710146 
L 161.03395 361.503117 
L 164.473026 357.085906 
L 167.912103 349.305415 
L 171.351179 332.582008 
L 174.790255 330.102171 
L 178.229331 326.258422 
L 181.668407 320.880274 
L 185.107484 326.816385 
L 188.54656 312.8363 
L 191.985636 308.837561 
L 195.424712 305.102305 
L 198.863789 291.12222 
L 202.302865 306.915687 
L 205.741941 286.705009 
L 209.181017 285.418593 
L 212.620093 283.248735 
L 216.05917 280.319426 
L 219.498246 273.205391 
L 222.937322 274.693294 
L 226.376398 266.990298 
L 229.815474 255.366058 
L 233.254551 258.419358 
L 236.693627 247.012104 
L 240.132703 263.13105 
L 247.010856 244.904242 
L 250.449932 239.448599 
L 253.889008 231.714605 
L 257.328084 234.907396 
L 260.76716 225.453014 
L 264.206237 221.562769 
L 267.645313 213.394803 
L 271.084389 221.113298 
L 274.523465 225.855988 
L 277.962541 211.705413 
L 281.401618 209.101584 
L 284.840694 198.918749 
L 288.27977 194.517037 
L 291.718846 190.580295 
L 295.157922 196.779889 
L 298.596999 192.95164 
L 302.036075 190.580295 
L 305.475151 197.182863 
L 308.914227 184.783674 
L 312.353304 198.329788 
L 315.79238 173.82589 
L 319.231456 175.902755 
L 322.670532 173.701898 
L 326.109608 177.700637 
L 329.548685 160.233279 
L 332.987761 159.861304 
L 336.426837 165.161957 
L 339.865913 151.135374 
L 343.304989 166.014401 
L 346.744066 162.403137 
L 350.183142 157.861934 
L 353.622218 146.966147 
L 357.061294 152.716271 
L 360.500371 143.184394 
L 363.939447 150.220934 
L 367.378523 144.811788 
L 370.817599 137.000299 
L 374.256675 130.10325 
L 377.695752 144.842786 
L 381.134828 133.62152 
L 384.573904 131.420663 
L 388.01298 143.71136 
L 391.452056 135.558893 
L 394.891133 138.457203 
L 401.769285 128.227872 
L 405.208361 127.747404 
L 412.086514 127.561416 
L 415.52559 129.824268 
L 418.964666 127.483921 
L 422.403742 125.407057 
L 425.842819 115.363714 
L 429.281895 114.991738 
L 432.720971 117.921046 
L 436.160047 115.844182 
L 439.599123 122.694734 
L 443.0382 114.511269 
L 446.477276 112.20192 
L 449.916352 119.036973 
L 453.355428 115.394712 
L 456.794504 112.031431 
L 463.672657 110.094058 
L 467.111733 115.735689 
L 470.550809 108.714648 
L 473.989886 116.960109 
L 477.428962 103.785971 
L 480.868038 104.746908 
L 484.307114 105.909332 
L 487.74619 97.245398 
L 491.185267 107.056257 
L 494.624343 99.089778 
L 498.063419 97.927354 
L 501.502495 100.205705 
L 504.941571 107.660717 
L 508.380648 92.812688 
L 511.819724 97.229899 
L 515.2588 96.113972 
L 518.697876 99.802731 
L 522.136953 98.299329 
L 525.576029 89.604398 
L 529.015105 92.735193 
L 532.454181 99.492751 
L 535.893257 92.192729 
L 539.332334 93.541141 
L 542.77141 91.355784 
L 546.210486 87.450039 
L 549.649562 89.960875 
L 553.088638 90.472341 
L 556.527715 88.224988 
L 559.966791 90.19336 
L 563.405867 89.697392 
L 566.844943 84.722217 
L 570.28402 87.977005 
L 573.723096 92.471711 
L 577.162172 84.055761 
L 580.601248 83.280812 
L 584.040324 82.970832 
L 587.479401 86.706088 
L 590.918477 79.344069 
L 594.357553 79.17358 
L 597.796629 78.491625 
L 601.235705 81.327939 
L 604.674782 83.296311 
L 608.113858 84.241749 
L 611.552934 86.070629 
L 614.99201 79.79354 
L 618.431086 79.096085 
L 621.870163 78.72411 
L 625.309239 76.631746 
L 628.748315 74.167408 
L 632.187391 82.149386 
L 635.626468 76.213274 
L 639.065544 75.391828 
L 642.50462 72.896491 
L 645.943696 76.259771 
L 649.382772 73.144475 
L 652.821849 79.32857 
L 656.260925 75.639811 
L 659.700001 74.368894 
L 663.139077 71.889057 
L 666.578153 73.407957 
L 670.01723 74.027917 
L 673.456306 74.802866 
L 676.895382 72.942988 
L 680.334458 70.835126 
L 683.773535 75.004353 
L 687.212611 71.780564 
L 690.651687 67.70433 
L 694.090763 71.703069 
L 697.529839 72.323028 
L 700.968916 69.579708 
L 704.407992 68.293292 
L 707.847068 69.455716 
L 711.286144 71.145105 
L 714.72522 68.138302 
L 718.164297 64.248056 
L 721.603373 63.023636 
L 725.042449 64.868016 
L 728.481525 67.611336 
L 731.920602 66.510908 
L 735.359678 64.80602 
L 738.798754 66.138933 
L 742.23783 64.310052 
L 745.676906 68.975247 
L 749.115983 67.378852 
L 752.555059 65.937446 
L 755.994135 66.510908 
L 759.433211 68.107304 
L 762.872287 63.287119 
L 766.311364 63.054634 
L 766.311364 63.054634 
" clip-path="url(#pda3d5314aa)" style="fill: none; stroke-dasharray: 9.6,2.4,1.5,2.4; stroke-dashoffset: 0; stroke: #e7298a; stroke-width: 1.5"/>
   </g>
   <g id="patch_8">
    <path d="M 47.72 822.04 
L 47.72 26.88 
" style="fill: none; stroke: #000000; stroke-width: 0.8; stroke-linejoin: miter; stroke-linecap: square"/>
   </g>
   <g id="patch_9">
    <path d="M 800.53 822.04 
L 800.53 26.88 
" style="fill: none; stroke: #000000; stroke-width: 0.8; stroke-linejoin: miter; stroke-linecap: square"/>
   </g>
   <g id="patch_10">
    <path d="M 47.72 822.04 
L 800.53 822.04 
" style="fill: none; stroke: #000000; stroke-width: 0.8; stroke-linejoin: miter; stroke-linecap: square"/>
   </g>
   <g id="patch_11">
    <path d="M 47.72 26.88 
L 800.53 26.88 
" style="fill: none; stroke: #000000; stroke-width: 0.8; stroke-linejoin: miter; stroke-linecap: square"/>
   </g>
  </g>
 </g>
 <defs>
  <clipPath id="pda3d5314aa">
   <rect x="47.72" y="26.88" width="752.81" height="795.16"/>
  </clipPath>
 </defs>
</svg>
