<?xml version="1.0" encoding="utf-8" standalone="no"?>
<!DOCTYPE svg PUBLIC "-//W3C//DTD SVG 1.1//EN"
  "http://www.w3.org/Graphics/SVG/1.1/DTD/svg11.dtd">
<svg xmlns:xlink="http://www.w3.org/1999/xlink" width="864pt" height="864pt" viewBox="0 0 864 864" xmlns="http://www.w3.org/2000/svg" version="1.1">
 <metadata>
  <rdf:RDF xmlns:dc="http://purl.org/dc/elements/1.1/" xmlns:cc="http://creativecommons.org/ns#" xmlns:rdf="http://www.w3.org/1999/02/22-rdf-syntax-ns#">
   <cc:Work>
    <dc:type rdf:resource="http://purl.org/dc/dcmitype/StillImage"/>
    <dc:date>2024-08-28T11:22:26.226065</dc:date>
    <dc:format>image/svg+xml</dc:format>
    <dc:creator>
     <cc:Agent>
      <dc:title>Matplotlib v3.9.2, https://matplotlib.org/</dc:title>
     </cc:Agent>
    </dc:creator>
   </cc:Work>
  </rdf:RDF>
 </metadata>
 <defs>
  <style type="text/css">*{stroke-linejoin: round; stroke-linecap: butt}</style>
 </defs>
 <g id="figure_1">
  <g id="patch_1">
   <path d="M 0 864 
L 864 864 
L 864 0 
L 0 0 
z
" style="fill: #ffffff"/>
  </g>
  <g id="axes_1">
   <g id="patch_2">
    <path d="M 47.72 822.04 
L 800.53 822.04 
L 800.53 26.88 
L 47.72 26.88 
z
" style="fill: #ffffff"/>
   </g>
   <g id="matplotlib.axis_1">
    <g id="xtick_1">
     <g id="line2d_1">
      <path d="M 81.937952 822.04 
L 81.937952 26.88 
" clip-path="url(#p96a605a65a)" style="fill: none; stroke: #b0b0b0; stroke-width: 0.8; stroke-linecap: square"/>
     </g>
     <g id="line2d_2">
      <defs>
       <path id="meace4272d9" d="M 0 0 
L 0 3.5 
" style="stroke: #000000; stroke-width: 0.8"/>
      </defs>
      <g>
       <use xlink:href="#meace4272d9" x="81.937952" y="822.04" style="stroke: #000000; stroke-width: 0.8"/>
      </g>
     </g>
     <g id="text_1">
      <!-- 0.0 -->
      <g transform="translate(73.986389 836.638438) scale(0.1 -0.1)">
       <defs>
        <path id="DejaVuSans-30" d="M 2034 4250 
Q 1547 4250 1301 3770 
Q 1056 3291 1056 2328 
Q 1056 1369 1301 889 
Q 1547 409 2034 409 
Q 2525 409 2770 889 
Q 3016 1369 3016 2328 
Q 3016 3291 2770 3770 
Q 2525 4250 2034 4250 
z
M 2034 4750 
Q 2819 4750 3233 4129 
Q 3647 3509 3647 2328 
Q 3647 1150 3233 529 
Q 2819 -91 2034 -91 
Q 1250 -91 836 529 
Q 422 1150 422 2328 
Q 422 3509 836 4129 
Q 1250 4750 2034 4750 
z
" transform="scale(0.015625)"/>
        <path id="DejaVuSans-2e" d="M 684 794 
L 1344 794 
L 1344 0 
L 684 0 
L 684 794 
z
" transform="scale(0.015625)"/>
       </defs>
       <use xlink:href="#DejaVuSans-30"/>
       <use xlink:href="#DejaVuSans-2e" x="63.623047"/>
       <use xlink:href="#DejaVuSans-30" x="95.410156"/>
      </g>
     </g>
    </g>
    <g id="xtick_2">
     <g id="line2d_3">
      <path d="M 218.812634 822.04 
L 218.812634 26.88 
" clip-path="url(#p96a605a65a)" style="fill: none; stroke: #b0b0b0; stroke-width: 0.8; stroke-linecap: square"/>
     </g>
     <g id="line2d_4">
      <g>
       <use xlink:href="#meace4272d9" x="218.812634" y="822.04" style="stroke: #000000; stroke-width: 0.8"/>
      </g>
     </g>
     <g id="text_2">
      <!-- 0.2 -->
      <g transform="translate(210.861072 836.638438) scale(0.1 -0.1)">
       <defs>
        <path id="DejaVuSans-32" d="M 1228 531 
L 3431 531 
L 3431 0 
L 469 0 
L 469 531 
Q 828 903 1448 1529 
Q 2069 2156 2228 2338 
Q 2531 2678 2651 2914 
Q 2772 3150 2772 3378 
Q 2772 3750 2511 3984 
Q 2250 4219 1831 4219 
Q 1534 4219 1204 4116 
Q 875 4013 500 3803 
L 500 4441 
Q 881 4594 1212 4672 
Q 1544 4750 1819 4750 
Q 2544 4750 2975 4387 
Q 3406 4025 3406 3419 
Q 3406 3131 3298 2873 
Q 3191 2616 2906 2266 
Q 2828 2175 2409 1742 
Q 1991 1309 1228 531 
z
" transform="scale(0.015625)"/>
       </defs>
       <use xlink:href="#DejaVuSans-30"/>
       <use xlink:href="#DejaVuSans-2e" x="63.623047"/>
       <use xlink:href="#DejaVuSans-32" x="95.410156"/>
      </g>
     </g>
    </g>
    <g id="xtick_3">
     <g id="line2d_5">
      <path d="M 355.687317 822.04 
L 355.687317 26.88 
" clip-path="url(#p96a605a65a)" style="fill: none; stroke: #b0b0b0; stroke-width: 0.8; stroke-linecap: square"/>
     </g>
     <g id="line2d_6">
      <g>
       <use xlink:href="#meace4272d9" x="355.687317" y="822.04" style="stroke: #000000; stroke-width: 0.8"/>
      </g>
     </g>
     <g id="text_3">
      <!-- 0.4 -->
      <g transform="translate(347.735754 836.638438) scale(0.1 -0.1)">
       <defs>
        <path id="DejaVuSans-34" d="M 2419 4116 
L 825 1625 
L 2419 1625 
L 2419 4116 
z
M 2253 4666 
L 3047 4666 
L 3047 1625 
L 3713 1625 
L 3713 1100 
L 3047 1100 
L 3047 0 
L 2419 0 
L 2419 1100 
L 313 1100 
L 313 1709 
L 2253 4666 
z
" transform="scale(0.015625)"/>
       </defs>
       <use xlink:href="#DejaVuSans-30"/>
       <use xlink:href="#DejaVuSans-2e" x="63.623047"/>
       <use xlink:href="#DejaVuSans-34" x="95.410156"/>
      </g>
     </g>
    </g>
    <g id="xtick_4">
     <g id="line2d_7">
      <path d="M 492.561999 822.04 
L 492.561999 26.88 
" clip-path="url(#p96a605a65a)" style="fill: none; stroke: #b0b0b0; stroke-width: 0.8; stroke-linecap: square"/>
     </g>
     <g id="line2d_8">
      <g>
       <use xlink:href="#meace4272d9" x="492.561999" y="822.04" style="stroke: #000000; stroke-width: 0.8"/>
      </g>
     </g>
     <g id="text_4">
      <!-- 0.6 -->
      <g transform="translate(484.610436 836.638438) scale(0.1 -0.1)">
       <defs>
        <path id="DejaVuSans-36" d="M 2113 2584 
Q 1688 2584 1439 2293 
Q 1191 2003 1191 1497 
Q 1191 994 1439 701 
Q 1688 409 2113 409 
Q 2538 409 2786 701 
Q 3034 994 3034 1497 
Q 3034 2003 2786 2293 
Q 2538 2584 2113 2584 
z
M 3366 4563 
L 3366 3988 
Q 3128 4100 2886 4159 
Q 2644 4219 2406 4219 
Q 1781 4219 1451 3797 
Q 1122 3375 1075 2522 
Q 1259 2794 1537 2939 
Q 1816 3084 2150 3084 
Q 2853 3084 3261 2657 
Q 3669 2231 3669 1497 
Q 3669 778 3244 343 
Q 2819 -91 2113 -91 
Q 1303 -91 875 529 
Q 447 1150 447 2328 
Q 447 3434 972 4092 
Q 1497 4750 2381 4750 
Q 2619 4750 2861 4703 
Q 3103 4656 3366 4563 
z
" transform="scale(0.015625)"/>
       </defs>
       <use xlink:href="#DejaVuSans-30"/>
       <use xlink:href="#DejaVuSans-2e" x="63.623047"/>
       <use xlink:href="#DejaVuSans-36" x="95.410156"/>
      </g>
     </g>
    </g>
    <g id="xtick_5">
     <g id="line2d_9">
      <path d="M 629.436681 822.04 
L 629.436681 26.88 
" clip-path="url(#p96a605a65a)" style="fill: none; stroke: #b0b0b0; stroke-width: 0.8; stroke-linecap: square"/>
     </g>
     <g id="line2d_10">
      <g>
       <use xlink:href="#meace4272d9" x="629.436681" y="822.04" style="stroke: #000000; stroke-width: 0.8"/>
      </g>
     </g>
     <g id="text_5">
      <!-- 0.8 -->
      <g transform="translate(621.485119 836.638438) scale(0.1 -0.1)">
       <defs>
        <path id="DejaVuSans-38" d="M 2034 2216 
Q 1584 2216 1326 1975 
Q 1069 1734 1069 1313 
Q 1069 891 1326 650 
Q 1584 409 2034 409 
Q 2484 409 2743 651 
Q 3003 894 3003 1313 
Q 3003 1734 2745 1975 
Q 2488 2216 2034 2216 
z
M 1403 2484 
Q 997 2584 770 2862 
Q 544 3141 544 3541 
Q 544 4100 942 4425 
Q 1341 4750 2034 4750 
Q 2731 4750 3128 4425 
Q 3525 4100 3525 3541 
Q 3525 3141 3298 2862 
Q 3072 2584 2669 2484 
Q 3125 2378 3379 2068 
Q 3634 1759 3634 1313 
Q 3634 634 3220 271 
Q 2806 -91 2034 -91 
Q 1263 -91 848 271 
Q 434 634 434 1313 
Q 434 1759 690 2068 
Q 947 2378 1403 2484 
z
M 1172 3481 
Q 1172 3119 1398 2916 
Q 1625 2713 2034 2713 
Q 2441 2713 2670 2916 
Q 2900 3119 2900 3481 
Q 2900 3844 2670 4047 
Q 2441 4250 2034 4250 
Q 1625 4250 1398 4047 
Q 1172 3844 1172 3481 
z
" transform="scale(0.015625)"/>
       </defs>
       <use xlink:href="#DejaVuSans-30"/>
       <use xlink:href="#DejaVuSans-2e" x="63.623047"/>
       <use xlink:href="#DejaVuSans-38" x="95.410156"/>
      </g>
     </g>
    </g>
    <g id="xtick_6">
     <g id="line2d_11">
      <path d="M 766.311364 822.04 
L 766.311364 26.88 
" clip-path="url(#p96a605a65a)" style="fill: none; stroke: #b0b0b0; stroke-width: 0.8; stroke-linecap: square"/>
     </g>
     <g id="line2d_12">
      <g>
       <use xlink:href="#meace4272d9" x="766.311364" y="822.04" style="stroke: #000000; stroke-width: 0.8"/>
      </g>
     </g>
     <g id="text_6">
      <!-- 1.0 -->
      <g transform="translate(758.359801 836.638438) scale(0.1 -0.1)">
       <defs>
        <path id="DejaVuSans-31" d="M 794 531 
L 1825 531 
L 1825 4091 
L 703 3866 
L 703 4441 
L 1819 4666 
L 2450 4666 
L 2450 531 
L 3481 531 
L 3481 0 
L 794 0 
L 794 531 
z
" transform="scale(0.015625)"/>
       </defs>
       <use xlink:href="#DejaVuSans-31"/>
       <use xlink:href="#DejaVuSans-2e" x="63.623047"/>
       <use xlink:href="#DejaVuSans-30" x="95.410156"/>
      </g>
     </g>
    </g>
    <g id="text_7">
     <!-- Input Size -->
     <g transform="translate(399.325 850.316563) scale(0.1 -0.1)">
      <defs>
       <path id="DejaVuSans-49" d="M 628 4666 
L 1259 4666 
L 1259 0 
L 628 0 
L 628 4666 
z
" transform="scale(0.015625)"/>
       <path id="DejaVuSans-6e" d="M 3513 2113 
L 3513 0 
L 2938 0 
L 2938 2094 
Q 2938 2591 2744 2837 
Q 2550 3084 2163 3084 
Q 1697 3084 1428 2787 
Q 1159 2491 1159 1978 
L 1159 0 
L 581 0 
L 581 3500 
L 1159 3500 
L 1159 2956 
Q 1366 3272 1645 3428 
Q 1925 3584 2291 3584 
Q 2894 3584 3203 3211 
Q 3513 2838 3513 2113 
z
" transform="scale(0.015625)"/>
       <path id="DejaVuSans-70" d="M 1159 525 
L 1159 -1331 
L 581 -1331 
L 581 3500 
L 1159 3500 
L 1159 2969 
Q 1341 3281 1617 3432 
Q 1894 3584 2278 3584 
Q 2916 3584 3314 3078 
Q 3713 2572 3713 1747 
Q 3713 922 3314 415 
Q 2916 -91 2278 -91 
Q 1894 -91 1617 61 
Q 1341 213 1159 525 
z
M 3116 1747 
Q 3116 2381 2855 2742 
Q 2594 3103 2138 3103 
Q 1681 3103 1420 2742 
Q 1159 2381 1159 1747 
Q 1159 1113 1420 752 
Q 1681 391 2138 391 
Q 2594 391 2855 752 
Q 3116 1113 3116 1747 
z
" transform="scale(0.015625)"/>
       <path id="DejaVuSans-75" d="M 544 1381 
L 544 3500 
L 1119 3500 
L 1119 1403 
Q 1119 906 1312 657 
Q 1506 409 1894 409 
Q 2359 409 2629 706 
Q 2900 1003 2900 1516 
L 2900 3500 
L 3475 3500 
L 3475 0 
L 2900 0 
L 2900 538 
Q 2691 219 2414 64 
Q 2138 -91 1772 -91 
Q 1169 -91 856 284 
Q 544 659 544 1381 
z
M 1991 3584 
L 1991 3584 
z
" transform="scale(0.015625)"/>
       <path id="DejaVuSans-74" d="M 1172 4494 
L 1172 3500 
L 2356 3500 
L 2356 3053 
L 1172 3053 
L 1172 1153 
Q 1172 725 1289 603 
Q 1406 481 1766 481 
L 2356 481 
L 2356 0 
L 1766 0 
Q 1100 0 847 248 
Q 594 497 594 1153 
L 594 3053 
L 172 3053 
L 172 3500 
L 594 3500 
L 594 4494 
L 1172 4494 
z
" transform="scale(0.015625)"/>
       <path id="DejaVuSans-20" transform="scale(0.015625)"/>
       <path id="DejaVuSans-53" d="M 3425 4513 
L 3425 3897 
Q 3066 4069 2747 4153 
Q 2428 4238 2131 4238 
Q 1616 4238 1336 4038 
Q 1056 3838 1056 3469 
Q 1056 3159 1242 3001 
Q 1428 2844 1947 2747 
L 2328 2669 
Q 3034 2534 3370 2195 
Q 3706 1856 3706 1288 
Q 3706 609 3251 259 
Q 2797 -91 1919 -91 
Q 1588 -91 1214 -16 
Q 841 59 441 206 
L 441 856 
Q 825 641 1194 531 
Q 1563 422 1919 422 
Q 2459 422 2753 634 
Q 3047 847 3047 1241 
Q 3047 1584 2836 1778 
Q 2625 1972 2144 2069 
L 1759 2144 
Q 1053 2284 737 2584 
Q 422 2884 422 3419 
Q 422 4038 858 4394 
Q 1294 4750 2059 4750 
Q 2388 4750 2728 4690 
Q 3069 4631 3425 4513 
z
" transform="scale(0.015625)"/>
       <path id="DejaVuSans-69" d="M 603 3500 
L 1178 3500 
L 1178 0 
L 603 0 
L 603 3500 
z
M 603 4863 
L 1178 4863 
L 1178 4134 
L 603 4134 
L 603 4863 
z
" transform="scale(0.015625)"/>
       <path id="DejaVuSans-7a" d="M 353 3500 
L 3084 3500 
L 3084 2975 
L 922 459 
L 3084 459 
L 3084 0 
L 275 0 
L 275 525 
L 2438 3041 
L 353 3041 
L 353 3500 
z
" transform="scale(0.015625)"/>
       <path id="DejaVuSans-65" d="M 3597 1894 
L 3597 1613 
L 953 1613 
Q 991 1019 1311 708 
Q 1631 397 2203 397 
Q 2534 397 2845 478 
Q 3156 559 3463 722 
L 3463 178 
Q 3153 47 2828 -22 
Q 2503 -91 2169 -91 
Q 1331 -91 842 396 
Q 353 884 353 1716 
Q 353 2575 817 3079 
Q 1281 3584 2069 3584 
Q 2775 3584 3186 3129 
Q 3597 2675 3597 1894 
z
M 3022 2063 
Q 3016 2534 2758 2815 
Q 2500 3097 2075 3097 
Q 1594 3097 1305 2825 
Q 1016 2553 972 2059 
L 3022 2063 
z
" transform="scale(0.015625)"/>
      </defs>
      <use xlink:href="#DejaVuSans-49"/>
      <use xlink:href="#DejaVuSans-6e" x="29.492188"/>
      <use xlink:href="#DejaVuSans-70" x="92.871094"/>
      <use xlink:href="#DejaVuSans-75" x="156.347656"/>
      <use xlink:href="#DejaVuSans-74" x="219.726562"/>
      <use xlink:href="#DejaVuSans-20" x="258.935547"/>
      <use xlink:href="#DejaVuSans-53" x="290.722656"/>
      <use xlink:href="#DejaVuSans-69" x="354.199219"/>
      <use xlink:href="#DejaVuSans-7a" x="381.982422"/>
      <use xlink:href="#DejaVuSans-65" x="434.472656"/>
     </g>
    </g>
    <g id="text_8">
     <!-- 1e6 -->
     <g transform="translate(781.651875 849.316563) scale(0.1 -0.1)">
      <use xlink:href="#DejaVuSans-31"/>
      <use xlink:href="#DejaVuSans-65" x="63.623047"/>
      <use xlink:href="#DejaVuSans-36" x="125.146484"/>
     </g>
    </g>
   </g>
   <g id="matplotlib.axis_2">
    <g id="ytick_1">
     <g id="line2d_13">
      <path d="M 47.72 785.896739 
L 800.53 785.896739 
" clip-path="url(#p96a605a65a)" style="fill: none; stroke: #b0b0b0; stroke-width: 0.8; stroke-linecap: square"/>
     </g>
     <g id="line2d_14">
      <defs>
       <path id="m3477a58932" d="M 0 0 
L -3.5 0 
" style="stroke: #000000; stroke-width: 0.8"/>
      </defs>
      <g>
       <use xlink:href="#m3477a58932" x="47.72" y="785.896739" style="stroke: #000000; stroke-width: 0.8"/>
      </g>
     </g>
     <g id="text_9">
      <!-- 0.0 -->
      <g transform="translate(24.816875 789.695958) scale(0.1 -0.1)">
       <use xlink:href="#DejaVuSans-30"/>
       <use xlink:href="#DejaVuSans-2e" x="63.623047"/>
       <use xlink:href="#DejaVuSans-30" x="95.410156"/>
      </g>
     </g>
    </g>
    <g id="ytick_2">
     <g id="line2d_15">
      <path d="M 47.72 633.490219 
L 800.53 633.490219 
" clip-path="url(#p96a605a65a)" style="fill: none; stroke: #b0b0b0; stroke-width: 0.8; stroke-linecap: square"/>
     </g>
     <g id="line2d_16">
      <g>
       <use xlink:href="#m3477a58932" x="47.72" y="633.490219" style="stroke: #000000; stroke-width: 0.8"/>
      </g>
     </g>
     <g id="text_10">
      <!-- 0.5 -->
      <g transform="translate(24.816875 637.289438) scale(0.1 -0.1)">
       <defs>
        <path id="DejaVuSans-35" d="M 691 4666 
L 3169 4666 
L 3169 4134 
L 1269 4134 
L 1269 2991 
Q 1406 3038 1543 3061 
Q 1681 3084 1819 3084 
Q 2600 3084 3056 2656 
Q 3513 2228 3513 1497 
Q 3513 744 3044 326 
Q 2575 -91 1722 -91 
Q 1428 -91 1123 -41 
Q 819 9 494 109 
L 494 744 
Q 775 591 1075 516 
Q 1375 441 1709 441 
Q 2250 441 2565 725 
Q 2881 1009 2881 1497 
Q 2881 1984 2565 2268 
Q 2250 2553 1709 2553 
Q 1456 2553 1204 2497 
Q 953 2441 691 2322 
L 691 4666 
z
" transform="scale(0.015625)"/>
       </defs>
       <use xlink:href="#DejaVuSans-30"/>
       <use xlink:href="#DejaVuSans-2e" x="63.623047"/>
       <use xlink:href="#DejaVuSans-35" x="95.410156"/>
      </g>
     </g>
    </g>
    <g id="ytick_3">
     <g id="line2d_17">
      <path d="M 47.72 481.0837 
L 800.53 481.0837 
" clip-path="url(#p96a605a65a)" style="fill: none; stroke: #b0b0b0; stroke-width: 0.8; stroke-linecap: square"/>
     </g>
     <g id="line2d_18">
      <g>
       <use xlink:href="#m3477a58932" x="47.72" y="481.0837" style="stroke: #000000; stroke-width: 0.8"/>
      </g>
     </g>
     <g id="text_11">
      <!-- 1.0 -->
      <g transform="translate(24.816875 484.882918) scale(0.1 -0.1)">
       <use xlink:href="#DejaVuSans-31"/>
       <use xlink:href="#DejaVuSans-2e" x="63.623047"/>
       <use xlink:href="#DejaVuSans-30" x="95.410156"/>
      </g>
     </g>
    </g>
    <g id="ytick_4">
     <g id="line2d_19">
      <path d="M 47.72 328.67718 
L 800.53 328.67718 
" clip-path="url(#p96a605a65a)" style="fill: none; stroke: #b0b0b0; stroke-width: 0.8; stroke-linecap: square"/>
     </g>
     <g id="line2d_20">
      <g>
       <use xlink:href="#m3477a58932" x="47.72" y="328.67718" style="stroke: #000000; stroke-width: 0.8"/>
      </g>
     </g>
     <g id="text_12">
      <!-- 1.5 -->
      <g transform="translate(24.816875 332.476399) scale(0.1 -0.1)">
       <use xlink:href="#DejaVuSans-31"/>
       <use xlink:href="#DejaVuSans-2e" x="63.623047"/>
       <use xlink:href="#DejaVuSans-35" x="95.410156"/>
      </g>
     </g>
    </g>
    <g id="ytick_5">
     <g id="line2d_21">
      <path d="M 47.72 176.270661 
L 800.53 176.270661 
" clip-path="url(#p96a605a65a)" style="fill: none; stroke: #b0b0b0; stroke-width: 0.8; stroke-linecap: square"/>
     </g>
     <g id="line2d_22">
      <g>
       <use xlink:href="#m3477a58932" x="47.72" y="176.270661" style="stroke: #000000; stroke-width: 0.8"/>
      </g>
     </g>
     <g id="text_13">
      <!-- 2.0 -->
      <g transform="translate(24.816875 180.069879) scale(0.1 -0.1)">
       <use xlink:href="#DejaVuSans-32"/>
       <use xlink:href="#DejaVuSans-2e" x="63.623047"/>
       <use xlink:href="#DejaVuSans-30" x="95.410156"/>
      </g>
     </g>
    </g>
    <g id="text_14">
     <!-- Time -->
     <g transform="translate(18.737188 436.693594) rotate(-90) scale(0.1 -0.1)">
      <defs>
       <path id="DejaVuSans-54" d="M -19 4666 
L 3928 4666 
L 3928 4134 
L 2272 4134 
L 2272 0 
L 1638 0 
L 1638 4134 
L -19 4134 
L -19 4666 
z
" transform="scale(0.015625)"/>
       <path id="DejaVuSans-6d" d="M 3328 2828 
Q 3544 3216 3844 3400 
Q 4144 3584 4550 3584 
Q 5097 3584 5394 3201 
Q 5691 2819 5691 2113 
L 5691 0 
L 5113 0 
L 5113 2094 
Q 5113 2597 4934 2840 
Q 4756 3084 4391 3084 
Q 3944 3084 3684 2787 
Q 3425 2491 3425 1978 
L 3425 0 
L 2847 0 
L 2847 2094 
Q 2847 2600 2669 2842 
Q 2491 3084 2119 3084 
Q 1678 3084 1418 2786 
Q 1159 2488 1159 1978 
L 1159 0 
L 581 0 
L 581 3500 
L 1159 3500 
L 1159 2956 
Q 1356 3278 1631 3431 
Q 1906 3584 2284 3584 
Q 2666 3584 2933 3390 
Q 3200 3197 3328 2828 
z
" transform="scale(0.015625)"/>
      </defs>
      <use xlink:href="#DejaVuSans-54"/>
      <use xlink:href="#DejaVuSans-69" x="57.958984"/>
      <use xlink:href="#DejaVuSans-6d" x="85.742188"/>
      <use xlink:href="#DejaVuSans-65" x="183.154297"/>
     </g>
    </g>
   </g>
   <g id="line2d_23">
    <path d="M 81.938636 785.896364 
L 82.086461 785.8811 
L 82.090567 785.886961 
L 82.597004 785.856621 
L 82.614113 785.837253 
L 82.605216 785.859528 
L 82.622325 785.855401 
L 94.256673 785.118153 
L 94.941047 785.088586 
L 95.62542 784.802999 
L 96.994167 784.912333 
L 97.67854 784.866987 
L 98.362914 784.707499 
L 99.731661 784.758684 
L 102.469154 784.325193 
L 103.153528 784.498444 
L 104.522275 784.278791 
L 105.206648 784.330633 
L 105.891021 784.132059 
L 106.575395 784.266786 
L 107.944142 784.184323 
L 109.312888 783.891937 
L 109.997262 783.920988 
L 110.681635 783.568975 
L 111.366009 783.961012 
L 112.050382 783.82333 
L 112.734756 783.860353 
L 113.419129 783.622177 
L 115.472249 783.71763 
L 116.840996 783.240973 
L 117.525369 783.751558 
L 118.894116 783.306883 
L 119.57849 783.349885 
L 120.262863 783.107957 
L 120.947236 783.331854 
L 121.63161 783.100595 
L 123.000357 783.057827 
L 123.68473 783.005212 
L 124.369104 783.201465 
L 125.053477 782.890274 
L 125.73785 783.101064 
L 126.422224 782.818737 
L 127.106597 782.857401 
L 127.790971 782.759439 
L 128.475344 782.789264 
L 129.159717 782.629635 
L 129.844091 782.777939 
L 131.897211 782.625298 
L 132.581584 782.734937 
L 133.265958 782.524358 
L 133.950331 782.513525 
L 134.634705 782.174901 
L 135.319078 782.326581 
L 136.003452 782.242664 
L 136.687825 782.411342 
L 138.056572 782.40391 
L 138.740945 782.291903 
L 139.425319 782.336663 
L 140.109692 781.982728 
L 140.794065 782.024933 
L 142.162812 781.789219 
L 143.531559 781.944556 
L 144.215932 782.047489 
L 148.322173 781.565439 
L 149.006546 781.624878 
L 149.69092 781.478497 
L 151.059667 781.715384 
L 151.74404 781.518451 
L 152.428413 781.650388 
L 153.112787 781.441779 
L 154.481534 781.356291 
L 155.165907 781.171175 
L 155.85028 781.378519 
L 156.534654 781.172277 
L 157.219027 781.088665 
L 157.903401 781.178749 
L 158.587774 781.381403 
L 159.956521 780.742069 
L 160.640894 780.974852 
L 161.325268 780.872412 
L 162.009641 781.195584 
L 162.694015 780.612265 
L 163.378388 780.340958 
L 164.062761 781.239078 
L 164.747135 780.505276 
L 165.431508 780.714636 
L 166.115882 780.368063 
L 166.800255 781.037105 
L 167.484628 780.302646 
L 168.169002 780.92348 
L 169.537749 780.538172 
L 170.222122 780.672173 
L 170.906496 781.032532 
L 171.590869 780.48898 
L 172.275242 780.397232 
L 172.959616 780.7869 
L 173.643989 780.406399 
L 174.328363 780.638245 
L 175.012736 779.958559 
L 176.381483 780.059264 
L 177.065856 780.481126 
L 177.75023 779.916518 
L 178.434603 779.837431 
L 179.80335 779.950798 
L 180.487723 780.134131 
L 181.85647 780.112607 
L 182.540844 779.985992 
L 183.225217 780.277088 
L 183.90959 779.49529 
L 184.593964 779.857619 
L 185.278337 779.978934 
L 188.015831 779.788309 
L 188.700204 779.674872 
L 189.384578 779.713747 
L 190.068951 779.438219 
L 190.753324 779.658505 
L 191.437698 779.39986 
L 192.806445 779.897549 
L 193.490818 779.291604 
L 194.175192 779.662984 
L 194.859565 779.596863 
L 195.543938 779.332402 
L 196.228312 779.339882 
L 196.912685 779.574729 
L 197.597059 779.068059 
L 198.965805 778.988456 
L 199.650179 779.329331 
L 200.334552 778.778885 
L 201.018926 779.587437 
L 201.703299 779.012419 
L 202.387672 779.092257 
L 203.072046 778.983298 
L 203.756419 779.02916 
L 204.440793 778.648965 
L 205.125166 778.847398 
L 205.809539 778.546196 
L 207.178286 778.915629 
L 208.547033 778.559959 
L 210.600153 778.650958 
L 211.9689 778.662072 
L 212.653274 778.439277 
L 214.706394 778.549619 
L 215.390767 778.148438 
L 216.075141 778.487812 
L 217.443887 778.551448 
L 218.128261 778.085553 
L 287.249975 773.314385 
L 355.687317 768.859097 
L 424.124658 764.823396 
L 492.561999 760.583141 
L 560.99934 757.177794 
L 629.436681 753.344887 
L 697.874022 748.913304 
L 766.311364 747.290643 
L 766.311364 747.290643 
" clip-path="url(#p96a605a65a)" style="fill: none; stroke: #1b9e77; stroke-width: 1.5; stroke-linecap: square"/>
   </g>
   <g id="line2d_24">
    <path d="M 81.938636 785.894816 
L 82.33831 785.041527 
L 82.418382 784.786586 
L 82.351998 785.316422 
L 82.448495 785.114026 
L 82.449179 785.193535 
L 82.523091 784.59582 
L 82.556626 784.978853 
L 82.605216 784.470472 
L 82.571682 785.015548 
L 82.622325 784.732634 
L 83.306699 783.898197 
L 84.675446 781.804108 
L 85.359819 781.152183 
L 87.412939 778.320095 
L 88.097313 777.54723 
L 88.781686 776.092826 
L 89.46606 776.482987 
L 90.150433 775.367676 
L 92.203553 773.271219 
L 92.887927 772.233049 
L 93.5723 771.883475 
L 94.256673 771.043739 
L 94.941047 770.809103 
L 95.62542 769.421406 
L 96.309794 768.915089 
L 96.994167 767.680783 
L 98.362914 766.37541 
L 99.731661 764.723628 
L 100.416034 763.645176 
L 101.100408 763.48407 
L 101.784781 762.198158 
L 102.469154 761.935503 
L 103.153528 762.175789 
L 104.522275 759.800897 
L 105.206648 759.252328 
L 105.891021 758.427457 
L 106.575395 757.886273 
L 107.944142 756.634734 
L 108.628515 755.387462 
L 109.312888 755.851763 
L 109.997262 755.399725 
L 110.681635 753.941875 
L 112.050382 752.559899 
L 113.419129 750.476174 
L 114.103502 750.485975 
L 114.787876 750.30773 
L 115.472249 749.316173 
L 116.156623 748.051386 
L 116.840996 747.929391 
L 117.525369 746.276694 
L 118.209743 746.627042 
L 120.262863 743.111305 
L 120.947236 742.526181 
L 122.315983 740.890601 
L 123.000357 739.539693 
L 123.68473 740.114008 
L 124.369104 739.213825 
L 125.053477 738.600353 
L 125.73785 737.386869 
L 126.422224 736.63792 
L 127.106597 735.451166 
L 127.790971 734.800132 
L 128.475344 734.581698 
L 129.159717 733.988954 
L 129.844091 732.575208 
L 130.528464 732.253255 
L 131.212838 731.084813 
L 131.897211 730.395279 
L 132.581584 729.365503 
L 133.265958 729.524428 
L 133.950331 728.389445 
L 134.634705 726.786175 
L 135.319078 726.632784 
L 136.003452 725.419253 
L 136.687825 724.670139 
L 137.372198 724.845876 
L 138.056572 723.627632 
L 138.740945 723.703812 
L 139.425319 722.552908 
L 140.109692 722.04802 
L 141.478439 720.322544 
L 142.162812 720.204722 
L 142.847186 718.802324 
L 143.531559 717.774659 
L 144.215932 717.707389 
L 144.900306 713.222511 
L 145.584679 716.58352 
L 146.269053 715.357304 
L 146.953426 715.594847 
L 147.6378 714.264901 
L 148.322173 714.158568 
L 149.006546 711.790757 
L 149.69092 711.08556 
L 150.375293 709.082634 
L 151.059667 710.819294 
L 151.74404 709.488152 
L 152.428413 709.587334 
L 153.79716 708.517698 
L 154.481534 707.676273 
L 155.165907 707.189276 
L 156.534654 705.809551 
L 157.219027 707.090446 
L 157.903401 705.342179 
L 158.587774 705.039992 
L 159.272148 703.424506 
L 159.956521 702.843533 
L 160.640894 701.983585 
L 161.325268 701.577152 
L 162.009641 700.323409 
L 162.694015 699.754323 
L 163.378388 699.422405 
L 164.062761 698.554743 
L 164.747135 696.614983 
L 166.115882 696.331976 
L 166.800255 696.290428 
L 167.484628 694.786152 
L 168.169002 694.123113 
L 168.853375 692.617477 
L 169.537749 692.447861 
L 170.222122 691.943583 
L 170.906496 690.469741 
L 171.590869 689.391782 
L 172.275242 688.631109 
L 172.959616 686.734375 
L 173.643989 687.373333 
L 174.328363 687.543888 
L 175.012736 685.539648 
L 176.381483 686.074103 
L 177.065856 684.886762 
L 177.75023 684.071036 
L 178.434603 683.859542 
L 179.118976 683.018751 
L 179.80335 681.576633 
L 180.487723 681.874014 
L 181.172097 681.775817 
L 182.540844 679.028303 
L 183.225217 678.877842 
L 183.90959 678.450611 
L 184.593964 677.198322 
L 185.278337 677.016888 
L 185.962711 675.746685 
L 186.647084 675.461638 
L 187.331457 674.439108 
L 188.015831 674.182033 
L 188.700204 672.779659 
L 190.753324 669.908625 
L 191.437698 667.473145 
L 192.122071 666.962888 
L 192.806445 665.283814 
L 193.490818 668.249387 
L 194.175192 665.372045 
L 194.859565 666.614346 
L 195.543938 665.469539 
L 196.228312 665.620913 
L 196.912685 665.162381 
L 197.597059 663.413317 
L 198.281432 662.190923 
L 198.965805 662.274137 
L 199.650179 661.593489 
L 200.334552 661.623197 
L 201.018926 659.169288 
L 201.703299 658.819245 
L 202.387672 658.889586 
L 203.072046 659.534266 
L 203.756419 657.476684 
L 204.440793 657.602361 
L 205.125166 655.516643 
L 205.809539 655.950391 
L 206.493913 654.80535 
L 207.178286 653.242901 
L 207.86266 652.415779 
L 208.547033 650.753212 
L 209.231407 650.293085 
L 209.91578 650.260658 
L 210.600153 650.001918 
L 211.284527 649.998096 
L 211.9689 649.136484 
L 212.653274 648.525076 
L 213.337647 648.436914 
L 214.02202 646.925792 
L 214.706394 645.914235 
L 216.075141 645.641403 
L 216.759514 644.059752 
L 217.443887 643.638266 
L 218.128261 642.802492 
L 287.249975 571.102634 
L 355.687317 498.789117 
L 424.124658 427.454026 
L 492.561999 361.121527 
L 560.99934 292.898319 
L 629.436681 218.57109 
L 697.874022 151.75558 
L 766.311364 63.023636 
L 766.311364 63.023636 
" clip-path="url(#p96a605a65a)" style="fill: none; stroke: #d95f02; stroke-width: 1.5; stroke-linecap: square"/>
   </g>
   <g id="patch_3">
    <path d="M 47.72 822.04 
L 47.72 26.88 
" style="fill: none; stroke: #000000; stroke-width: 0.8; stroke-linejoin: miter; stroke-linecap: square"/>
   </g>
   <g id="patch_4">
    <path d="M 800.53 822.04 
L 800.53 26.88 
" style="fill: none; stroke: #000000; stroke-width: 0.8; stroke-linejoin: miter; stroke-linecap: square"/>
   </g>
   <g id="patch_5">
    <path d="M 47.72 822.04 
L 800.53 822.04 
" style="fill: none; stroke: #000000; stroke-width: 0.8; stroke-linejoin: miter; stroke-linecap: square"/>
   </g>
   <g id="patch_6">
    <path d="M 47.72 26.88 
L 800.53 26.88 
" style="fill: none; stroke: #000000; stroke-width: 0.8; stroke-linejoin: miter; stroke-linecap: square"/>
   </g>
   <g id="text_15">
    <!-- Benchmark -->
    <g transform="translate(389.950312 20.88) scale(0.12 -0.12)">
     <defs>
      <path id="DejaVuSans-42" d="M 1259 2228 
L 1259 519 
L 2272 519 
Q 2781 519 3026 730 
Q 3272 941 3272 1375 
Q 3272 1813 3026 2020 
Q 2781 2228 2272 2228 
L 1259 2228 
z
M 1259 4147 
L 1259 2741 
L 2194 2741 
Q 2656 2741 2882 2914 
Q 3109 3088 3109 3444 
Q 3109 3797 2882 3972 
Q 2656 4147 2194 4147 
L 1259 4147 
z
M 628 4666 
L 2241 4666 
Q 2963 4666 3353 4366 
Q 3744 4066 3744 3513 
Q 3744 3084 3544 2831 
Q 3344 2578 2956 2516 
Q 3422 2416 3680 2098 
Q 3938 1781 3938 1306 
Q 3938 681 3513 340 
Q 3088 0 2303 0 
L 628 0 
L 628 4666 
z
" transform="scale(0.015625)"/>
      <path id="DejaVuSans-63" d="M 3122 3366 
L 3122 2828 
Q 2878 2963 2633 3030 
Q 2388 3097 2138 3097 
Q 1578 3097 1268 2742 
Q 959 2388 959 1747 
Q 959 1106 1268 751 
Q 1578 397 2138 397 
Q 2388 397 2633 464 
Q 2878 531 3122 666 
L 3122 134 
Q 2881 22 2623 -34 
Q 2366 -91 2075 -91 
Q 1284 -91 818 406 
Q 353 903 353 1747 
Q 353 2603 823 3093 
Q 1294 3584 2113 3584 
Q 2378 3584 2631 3529 
Q 2884 3475 3122 3366 
z
" transform="scale(0.015625)"/>
      <path id="DejaVuSans-68" d="M 3513 2113 
L 3513 0 
L 2938 0 
L 2938 2094 
Q 2938 2591 2744 2837 
Q 2550 3084 2163 3084 
Q 1697 3084 1428 2787 
Q 1159 2491 1159 1978 
L 1159 0 
L 581 0 
L 581 4863 
L 1159 4863 
L 1159 2956 
Q 1366 3272 1645 3428 
Q 1925 3584 2291 3584 
Q 2894 3584 3203 3211 
Q 3513 2838 3513 2113 
z
" transform="scale(0.015625)"/>
      <path id="DejaVuSans-61" d="M 2194 1759 
Q 1497 1759 1228 1600 
Q 959 1441 959 1056 
Q 959 750 1161 570 
Q 1363 391 1709 391 
Q 2188 391 2477 730 
Q 2766 1069 2766 1631 
L 2766 1759 
L 2194 1759 
z
M 3341 1997 
L 3341 0 
L 2766 0 
L 2766 531 
Q 2569 213 2275 61 
Q 1981 -91 1556 -91 
Q 1019 -91 701 211 
Q 384 513 384 1019 
Q 384 1609 779 1909 
Q 1175 2209 1959 2209 
L 2766 2209 
L 2766 2266 
Q 2766 2663 2505 2880 
Q 2244 3097 1772 3097 
Q 1472 3097 1187 3025 
Q 903 2953 641 2809 
L 641 3341 
Q 956 3463 1253 3523 
Q 1550 3584 1831 3584 
Q 2591 3584 2966 3190 
Q 3341 2797 3341 1997 
z
" transform="scale(0.015625)"/>
      <path id="DejaVuSans-72" d="M 2631 2963 
Q 2534 3019 2420 3045 
Q 2306 3072 2169 3072 
Q 1681 3072 1420 2755 
Q 1159 2438 1159 1844 
L 1159 0 
L 581 0 
L 581 3500 
L 1159 3500 
L 1159 2956 
Q 1341 3275 1631 3429 
Q 1922 3584 2338 3584 
Q 2397 3584 2469 3576 
Q 2541 3569 2628 3553 
L 2631 2963 
z
" transform="scale(0.015625)"/>
      <path id="DejaVuSans-6b" d="M 581 4863 
L 1159 4863 
L 1159 1991 
L 2875 3500 
L 3609 3500 
L 1753 1863 
L 3688 0 
L 2938 0 
L 1159 1709 
L 1159 0 
L 581 0 
L 581 4863 
z
" transform="scale(0.015625)"/>
     </defs>
     <use xlink:href="#DejaVuSans-42"/>
     <use xlink:href="#DejaVuSans-65" x="68.603516"/>
     <use xlink:href="#DejaVuSans-6e" x="130.126953"/>
     <use xlink:href="#DejaVuSans-63" x="193.505859"/>
     <use xlink:href="#DejaVuSans-68" x="248.486328"/>
     <use xlink:href="#DejaVuSans-6d" x="311.865234"/>
     <use xlink:href="#DejaVuSans-61" x="409.277344"/>
     <use xlink:href="#DejaVuSans-72" x="470.556641"/>
     <use xlink:href="#DejaVuSans-6b" x="511.669922"/>
    </g>
   </g>
   <g id="legend_1">
    <g id="patch_7">
     <path d="M 54.72 93.870625 
L 202.355938 93.870625 
Q 204.355938 93.870625 204.355938 91.870625 
L 204.355938 33.88 
Q 204.355938 31.88 202.355938 31.88 
L 54.72 31.88 
Q 52.72 31.88 52.72 33.88 
L 52.72 91.870625 
Q 52.72 93.870625 54.72 93.870625 
z
" style="fill: #ffffff; opacity: 0.8; stroke: #cccccc; stroke-linejoin: miter"/>
    </g>
    <g id="line2d_25">
     <path d="M 56.72 39.978438 
L 66.72 39.978438 
L 76.72 39.978438 
" style="fill: none; stroke: #000000; stroke-width: 2; stroke-linecap: square"/>
    </g>
    <g id="text_16">
     <!-- Time -->
     <g transform="translate(84.72 43.478438) scale(0.1 -0.1)">
      <use xlink:href="#DejaVuSans-54"/>
      <use xlink:href="#DejaVuSans-69" x="57.958984"/>
      <use xlink:href="#DejaVuSans-6d" x="85.742188"/>
      <use xlink:href="#DejaVuSans-65" x="183.154297"/>
     </g>
    </g>
    <g id="line2d_26">
     <path d="M 56.72 54.656563 
L 66.72 54.656563 
L 76.72 54.656563 
" style="fill: none; stroke-dasharray: 12.8,3.2,2,3.2; stroke-dashoffset: 0; stroke: #000000; stroke-width: 2"/>
    </g>
    <g id="text_17">
     <!-- Solution -->
     <g transform="translate(84.72 58.156563) scale(0.1 -0.1)">
      <defs>
       <path id="DejaVuSans-6f" d="M 1959 3097 
Q 1497 3097 1228 2736 
Q 959 2375 959 1747 
Q 959 1119 1226 758 
Q 1494 397 1959 397 
Q 2419 397 2687 759 
Q 2956 1122 2956 1747 
Q 2956 2369 2687 2733 
Q 2419 3097 1959 3097 
z
M 1959 3584 
Q 2709 3584 3137 3096 
Q 3566 2609 3566 1747 
Q 3566 888 3137 398 
Q 2709 -91 1959 -91 
Q 1206 -91 779 398 
Q 353 888 353 1747 
Q 353 2609 779 3096 
Q 1206 3584 1959 3584 
z
" transform="scale(0.015625)"/>
       <path id="DejaVuSans-6c" d="M 603 4863 
L 1178 4863 
L 1178 0 
L 603 0 
L 603 4863 
z
" transform="scale(0.015625)"/>
      </defs>
      <use xlink:href="#DejaVuSans-53"/>
      <use xlink:href="#DejaVuSans-6f" x="63.476562"/>
      <use xlink:href="#DejaVuSans-6c" x="124.658203"/>
      <use xlink:href="#DejaVuSans-75" x="152.441406"/>
      <use xlink:href="#DejaVuSans-74" x="215.820312"/>
      <use xlink:href="#DejaVuSans-69" x="255.029297"/>
      <use xlink:href="#DejaVuSans-6f" x="282.8125"/>
      <use xlink:href="#DejaVuSans-6e" x="343.994141"/>
     </g>
    </g>
    <g id="line2d_27">
     <path d="M 56.72 69.334688 
L 66.72 69.334688 
L 76.72 69.334688 
" style="fill: none; stroke: #1b9e77; stroke-width: 1.5; stroke-linecap: square"/>
    </g>
    <g id="text_18">
     <!-- greedy -->
     <g transform="translate(84.72 72.834688) scale(0.1 -0.1)">
      <defs>
       <path id="DejaVuSans-67" d="M 2906 1791 
Q 2906 2416 2648 2759 
Q 2391 3103 1925 3103 
Q 1463 3103 1205 2759 
Q 947 2416 947 1791 
Q 947 1169 1205 825 
Q 1463 481 1925 481 
Q 2391 481 2648 825 
Q 2906 1169 2906 1791 
z
M 3481 434 
Q 3481 -459 3084 -895 
Q 2688 -1331 1869 -1331 
Q 1566 -1331 1297 -1286 
Q 1028 -1241 775 -1147 
L 775 -588 
Q 1028 -725 1275 -790 
Q 1522 -856 1778 -856 
Q 2344 -856 2625 -561 
Q 2906 -266 2906 331 
L 2906 616 
Q 2728 306 2450 153 
Q 2172 0 1784 0 
Q 1141 0 747 490 
Q 353 981 353 1791 
Q 353 2603 747 3093 
Q 1141 3584 1784 3584 
Q 2172 3584 2450 3431 
Q 2728 3278 2906 2969 
L 2906 3500 
L 3481 3500 
L 3481 434 
z
" transform="scale(0.015625)"/>
       <path id="DejaVuSans-64" d="M 2906 2969 
L 2906 4863 
L 3481 4863 
L 3481 0 
L 2906 0 
L 2906 525 
Q 2725 213 2448 61 
Q 2172 -91 1784 -91 
Q 1150 -91 751 415 
Q 353 922 353 1747 
Q 353 2572 751 3078 
Q 1150 3584 1784 3584 
Q 2172 3584 2448 3432 
Q 2725 3281 2906 2969 
z
M 947 1747 
Q 947 1113 1208 752 
Q 1469 391 1925 391 
Q 2381 391 2643 752 
Q 2906 1113 2906 1747 
Q 2906 2381 2643 2742 
Q 2381 3103 1925 3103 
Q 1469 3103 1208 2742 
Q 947 2381 947 1747 
z
" transform="scale(0.015625)"/>
       <path id="DejaVuSans-79" d="M 2059 -325 
Q 1816 -950 1584 -1140 
Q 1353 -1331 966 -1331 
L 506 -1331 
L 506 -850 
L 844 -850 
Q 1081 -850 1212 -737 
Q 1344 -625 1503 -206 
L 1606 56 
L 191 3500 
L 800 3500 
L 1894 763 
L 2988 3500 
L 3597 3500 
L 2059 -325 
z
" transform="scale(0.015625)"/>
      </defs>
      <use xlink:href="#DejaVuSans-67"/>
      <use xlink:href="#DejaVuSans-72" x="63.476562"/>
      <use xlink:href="#DejaVuSans-65" x="102.339844"/>
      <use xlink:href="#DejaVuSans-65" x="163.863281"/>
      <use xlink:href="#DejaVuSans-64" x="225.386719"/>
      <use xlink:href="#DejaVuSans-79" x="288.863281"/>
     </g>
    </g>
    <g id="line2d_28">
     <path d="M 56.72 84.012812 
L 66.72 84.012812 
L 76.72 84.012812 
" style="fill: none; stroke: #d95f02; stroke-width: 1.5; stroke-linecap: square"/>
    </g>
    <g id="text_19">
     <!-- dynamic_programming -->
     <g transform="translate(84.72 87.512812) scale(0.1 -0.1)">
      <defs>
       <path id="DejaVuSans-5f" d="M 3263 -1063 
L 3263 -1509 
L -63 -1509 
L -63 -1063 
L 3263 -1063 
z
" transform="scale(0.015625)"/>
      </defs>
      <use xlink:href="#DejaVuSans-64"/>
      <use xlink:href="#DejaVuSans-79" x="63.476562"/>
      <use xlink:href="#DejaVuSans-6e" x="122.65625"/>
      <use xlink:href="#DejaVuSans-61" x="186.035156"/>
      <use xlink:href="#DejaVuSans-6d" x="247.314453"/>
      <use xlink:href="#DejaVuSans-69" x="344.726562"/>
      <use xlink:href="#DejaVuSans-63" x="372.509766"/>
      <use xlink:href="#DejaVuSans-5f" x="427.490234"/>
      <use xlink:href="#DejaVuSans-70" x="477.490234"/>
      <use xlink:href="#DejaVuSans-72" x="540.966797"/>
      <use xlink:href="#DejaVuSans-6f" x="579.830078"/>
      <use xlink:href="#DejaVuSans-67" x="641.011719"/>
      <use xlink:href="#DejaVuSans-72" x="704.488281"/>
      <use xlink:href="#DejaVuSans-61" x="745.601562"/>
      <use xlink:href="#DejaVuSans-6d" x="806.880859"/>
      <use xlink:href="#DejaVuSans-6d" x="904.292969"/>
      <use xlink:href="#DejaVuSans-69" x="1001.705078"/>
      <use xlink:href="#DejaVuSans-6e" x="1029.488281"/>
      <use xlink:href="#DejaVuSans-67" x="1092.867188"/>
     </g>
    </g>
   </g>
  </g>
  <g id="axes_2">
   <g id="matplotlib.axis_3">
    <g id="ytick_6">
     <g id="line2d_29">
      <defs>
       <path id="m28c18265c8" d="M 0 0 
L 3.5 0 
" style="stroke: #000000; stroke-width: 0.8"/>
      </defs>
      <g>
       <use xlink:href="#m28c18265c8" x="800.53" y="786.231067" style="stroke: #000000; stroke-width: 0.8"/>
      </g>
     </g>
     <g id="text_20">
      <!-- 0 -->
      <g transform="translate(807.53 790.030286) scale(0.1 -0.1)">
       <use xlink:href="#DejaVuSans-30"/>
      </g>
     </g>
    </g>
    <g id="ytick_7">
     <g id="line2d_30">
      <g>
       <use xlink:href="#m28c18265c8" x="800.53" y="640.70771" style="stroke: #000000; stroke-width: 0.8"/>
      </g>
     </g>
     <g id="text_21">
      <!-- 10000 -->
      <g transform="translate(807.53 644.506928) scale(0.1 -0.1)">
       <use xlink:href="#DejaVuSans-31"/>
       <use xlink:href="#DejaVuSans-30" x="63.623047"/>
       <use xlink:href="#DejaVuSans-30" x="127.246094"/>
       <use xlink:href="#DejaVuSans-30" x="190.869141"/>
       <use xlink:href="#DejaVuSans-30" x="254.492188"/>
      </g>
     </g>
    </g>
    <g id="ytick_8">
     <g id="line2d_31">
      <g>
       <use xlink:href="#m28c18265c8" x="800.53" y="495.184352" style="stroke: #000000; stroke-width: 0.8"/>
      </g>
     </g>
     <g id="text_22">
      <!-- 20000 -->
      <g transform="translate(807.53 498.983571) scale(0.1 -0.1)">
       <use xlink:href="#DejaVuSans-32"/>
       <use xlink:href="#DejaVuSans-30" x="63.623047"/>
       <use xlink:href="#DejaVuSans-30" x="127.246094"/>
       <use xlink:href="#DejaVuSans-30" x="190.869141"/>
       <use xlink:href="#DejaVuSans-30" x="254.492188"/>
      </g>
     </g>
    </g>
    <g id="ytick_9">
     <g id="line2d_32">
      <g>
       <use xlink:href="#m28c18265c8" x="800.53" y="349.660994" style="stroke: #000000; stroke-width: 0.8"/>
      </g>
     </g>
     <g id="text_23">
      <!-- 30000 -->
      <g transform="translate(807.53 353.460213) scale(0.1 -0.1)">
       <defs>
        <path id="DejaVuSans-33" d="M 2597 2516 
Q 3050 2419 3304 2112 
Q 3559 1806 3559 1356 
Q 3559 666 3084 287 
Q 2609 -91 1734 -91 
Q 1441 -91 1130 -33 
Q 819 25 488 141 
L 488 750 
Q 750 597 1062 519 
Q 1375 441 1716 441 
Q 2309 441 2620 675 
Q 2931 909 2931 1356 
Q 2931 1769 2642 2001 
Q 2353 2234 1838 2234 
L 1294 2234 
L 1294 2753 
L 1863 2753 
Q 2328 2753 2575 2939 
Q 2822 3125 2822 3475 
Q 2822 3834 2567 4026 
Q 2313 4219 1838 4219 
Q 1578 4219 1281 4162 
Q 984 4106 628 3988 
L 628 4550 
Q 988 4650 1302 4700 
Q 1616 4750 1894 4750 
Q 2613 4750 3031 4423 
Q 3450 4097 3450 3541 
Q 3450 3153 3228 2886 
Q 3006 2619 2597 2516 
z
" transform="scale(0.015625)"/>
       </defs>
       <use xlink:href="#DejaVuSans-33"/>
       <use xlink:href="#DejaVuSans-30" x="63.623047"/>
       <use xlink:href="#DejaVuSans-30" x="127.246094"/>
       <use xlink:href="#DejaVuSans-30" x="190.869141"/>
       <use xlink:href="#DejaVuSans-30" x="254.492188"/>
      </g>
     </g>
    </g>
    <g id="ytick_10">
     <g id="line2d_33">
      <g>
       <use xlink:href="#m28c18265c8" x="800.53" y="204.137636" style="stroke: #000000; stroke-width: 0.8"/>
      </g>
     </g>
     <g id="text_24">
      <!-- 40000 -->
      <g transform="translate(807.53 207.936855) scale(0.1 -0.1)">
       <use xlink:href="#DejaVuSans-34"/>
       <use xlink:href="#DejaVuSans-30" x="63.623047"/>
       <use xlink:href="#DejaVuSans-30" x="127.246094"/>
       <use xlink:href="#DejaVuSans-30" x="190.869141"/>
       <use xlink:href="#DejaVuSans-30" x="254.492188"/>
      </g>
     </g>
    </g>
    <g id="ytick_11">
     <g id="line2d_34">
      <g>
       <use xlink:href="#m28c18265c8" x="800.53" y="58.614279" style="stroke: #000000; stroke-width: 0.8"/>
      </g>
     </g>
     <g id="text_25">
      <!-- 50000 -->
      <g transform="translate(807.53 62.413497) scale(0.1 -0.1)">
       <use xlink:href="#DejaVuSans-35"/>
       <use xlink:href="#DejaVuSans-30" x="63.623047"/>
       <use xlink:href="#DejaVuSans-30" x="127.246094"/>
       <use xlink:href="#DejaVuSans-30" x="190.869141"/>
       <use xlink:href="#DejaVuSans-30" x="254.492188"/>
      </g>
     </g>
    </g>
    <g id="text_26">
     <!-- Solution -->
     <g transform="translate(850.940938 444.82875) rotate(-90) scale(0.1 -0.1)">
      <use xlink:href="#DejaVuSans-53"/>
      <use xlink:href="#DejaVuSans-6f" x="63.476562"/>
      <use xlink:href="#DejaVuSans-6c" x="124.658203"/>
      <use xlink:href="#DejaVuSans-75" x="152.441406"/>
      <use xlink:href="#DejaVuSans-74" x="215.820312"/>
      <use xlink:href="#DejaVuSans-69" x="255.029297"/>
      <use xlink:href="#DejaVuSans-6f" x="282.8125"/>
      <use xlink:href="#DejaVuSans-6e" x="343.994141"/>
     </g>
    </g>
   </g>
   <g id="line2d_35">
    <path d="M 81.938636 785.896364 
L 82.124102 725.737008 
L 82.124786 737.175143 
L 82.233601 710.515264 
L 82.234286 720.614585 
L 82.236339 723.830652 
L 82.319832 703.588352 
L 82.329414 704.752539 
L 82.434807 690.316622 
L 82.351998 714.211558 
L 82.442335 694.740532 
L 82.452601 702.380509 
L 82.525829 681.774401 
L 82.552519 686.489358 
L 82.555257 695.264416 
L 82.620272 673.217628 
L 82.622325 679.504237 
L 83.306699 642.89056 
L 83.991072 620.392649 
L 84.675446 590.909617 
L 85.359819 583.866286 
L 86.044192 547.1944 
L 86.728566 533.020425 
L 87.412939 530.037196 
L 88.097313 510.769903 
L 88.781686 495.98473 
L 90.150433 479.249544 
L 90.834806 453.7393 
L 91.51918 457.72664 
L 92.203553 448.660534 
L 92.887927 429.960783 
L 93.5723 433.977228 
L 94.256673 422.728272 
L 94.941047 407.404662 
L 95.62542 402.573287 
L 96.309794 407.346453 
L 96.994167 407.026302 
L 97.67854 389.214243 
L 98.362914 391.382541 
L 99.047287 372.173458 
L 99.731661 366.410733 
L 100.416034 365.901401 
L 101.100408 354.346846 
L 101.784781 353.444601 
L 102.469154 338.935923 
L 103.153528 346.765079 
L 103.837901 342.021018 
L 104.522275 338.062783 
L 105.206648 319.639525 
L 105.891021 325.140308 
L 106.575395 317.587646 
L 107.259768 328.152642 
L 107.944142 301.521867 
L 108.628515 310.57342 
L 109.312888 302.569636 
L 109.997262 299.339017 
L 110.681635 299.804692 
L 112.050382 277.947083 
L 112.734756 282.545622 
L 113.419129 282.458308 
L 114.103502 280.72658 
L 114.787876 284.408321 
L 115.472249 271.063829 
L 116.840996 267.83321 
L 117.525369 262.856311 
L 118.209743 251.88385 
L 118.894116 258.781657 
L 119.57849 254.008491 
L 120.262863 250.32675 
L 120.947236 257.370081 
L 121.63161 250.443169 
L 122.315983 241.333407 
L 123.000357 239.587126 
L 123.68473 226.708309 
L 124.369104 228.993026 
L 125.053477 237.258753 
L 125.73785 223.681423 
L 126.422224 227.726973 
L 127.106597 207.382807 
L 127.790971 218.23885 
L 128.475344 215.590325 
L 129.159717 209.420134 
L 130.528464 204.821596 
L 131.212838 207.863034 
L 131.897211 200.077535 
L 132.581584 207.382807 
L 133.265958 201.809263 
L 133.950331 199.61186 
L 134.634705 198.040208 
L 135.319078 188.653951 
L 136.003452 194.445781 
L 136.687825 184.637506 
L 137.372198 192.728605 
L 138.056572 192.612186 
L 138.740945 185.263257 
L 139.425319 180.853899 
L 140.109692 183.400558 
L 140.794065 178.641944 
L 141.478439 184.200936 
L 142.162812 187.722602 
L 143.531559 173.94154 
L 144.215932 179.253142 
L 144.900306 175.847896 
L 145.584679 173.155714 
L 146.269053 174.683709 
L 146.953426 168.164262 
L 147.6378 170.492636 
L 148.322173 167.087389 
L 149.006546 165.020958 
L 149.69092 166.417982 
L 150.375293 161.237351 
L 151.059667 164.555283 
L 151.74404 154.499619 
L 152.428413 151.982065 
L 153.112787 158.355988 
L 153.79716 159.92764 
L 154.481534 156.158585 
L 155.85028 151.399972 
L 156.534654 150.39586 
L 157.219027 153.248118 
L 157.903401 150.977954 
L 158.587774 154.572381 
L 159.272148 148.358533 
L 159.956521 147.994725 
L 160.640894 153.029833 
L 161.325268 144.371193 
L 162.009641 144.03649 
L 162.694015 141.35886 
L 163.378388 145.258886 
L 164.062761 147.52905 
L 164.747135 139.743551 
L 165.431508 138.841306 
L 166.115882 137.589805 
L 166.800255 144.385746 
L 167.484628 142.261105 
L 168.169002 136.207333 
L 168.853375 135.974496 
L 169.537749 140.078254 
L 170.222122 140.500272 
L 170.906496 140.747662 
L 171.590869 136.542037 
L 172.275242 137.284206 
L 172.959616 132.481935 
L 173.643989 132.94761 
L 174.328363 135.916286 
L 175.012736 133.777093 
L 175.697109 134.373739 
L 176.381483 136.192781 
L 177.065856 125.293081 
L 177.75023 134.06814 
L 178.434603 131.550586 
L 179.118976 127.359513 
L 179.80335 128.741985 
L 180.487723 131.783423 
L 181.172097 126.09346 
L 181.85647 123.808743 
L 182.540844 128.043473 
L 183.225217 125.962489 
L 183.90959 126.922943 
L 184.593964 130.400951 
L 185.962711 122.004253 
L 186.647084 125.584128 
L 187.331457 122.746422 
L 188.015831 120.54902 
L 189.384578 125.627785 
L 190.068951 126.646448 
L 190.753324 122.630004 
L 192.122071 119.603118 
L 192.806445 118.584454 
L 193.490818 117.362058 
L 194.175192 120.941933 
L 194.859565 121.698654 
L 195.543938 120.432601 
L 196.228312 119.937822 
L 196.912685 115.63033 
L 197.597059 115.208312 
L 198.281432 113.796736 
L 198.965805 118.235198 
L 199.650179 114.5098 
L 200.334552 116.459813 
L 201.018926 114.349725 
L 201.703299 117.172878 
L 202.387672 117.391163 
L 203.072046 114.160544 
L 204.440793 111.759409 
L 205.809539 117.798628 
L 206.493913 119.42849 
L 207.178286 113.534794 
L 207.86266 111.875828 
L 208.547033 109.547454 
L 209.231407 109.096331 
L 209.91578 110.711641 
L 210.600153 109.780291 
L 211.284527 110.857164 
L 211.9689 108.674314 
L 212.653274 109.765739 
L 213.337647 112.923596 
L 214.02202 110.289623 
L 214.706394 111.439257 
L 215.390767 107.175423 
L 216.075141 109.794844 
L 216.759514 108.121325 
L 217.443887 110.304175 
L 218.128261 107.873935 
L 287.249975 88.097311 
L 355.687317 80.297259 
L 424.124658 74.956552 
L 492.561999 69.295693 
L 560.99934 67.709488 
L 629.436681 65.133725 
L 697.874022 64.246033 
L 766.311364 63.023636 
L 766.311364 63.023636 
" clip-path="url(#p96a605a65a)" style="fill: none; stroke-dasharray: 9.6,2.4,1.5,2.4; stroke-dashoffset: 0; stroke: #1b9e77; stroke-width: 1.5"/>
   </g>
   <g id="line2d_36">
    <path d="M 81.938636 785.896364 
L 82.124102 725.373199 
L 82.124786 736.738573 
L 82.233601 710.093247 
L 82.234286 720.221672 
L 82.236339 723.830652 
L 82.319832 703.32641 
L 82.33352 708.376071 
L 82.434807 690.098337 
L 82.351998 713.731331 
L 82.445757 691.800961 
L 82.525829 681.730744 
L 82.452601 702.0167 
L 82.558679 684.466583 
L 82.584 693.649107 
L 82.620272 672.868372 
L 82.622325 679.154981 
L 83.306699 642.352124 
L 83.991072 619.941526 
L 84.675446 590.909617 
L 85.359819 583.633449 
L 86.044192 547.1944 
L 86.728566 532.74393 
L 87.412939 529.891673 
L 88.097313 510.769903 
L 88.781686 495.810102 
L 89.46606 488.039155 
L 90.150433 478.885736 
L 90.834806 453.535567 
L 91.51918 457.72664 
L 92.203553 448.660534 
L 92.887927 429.960783 
L 93.5723 433.758943 
L 94.256673 422.509987 
L 94.941047 407.404662 
L 95.62542 402.573287 
L 96.309794 407.113616 
L 96.994167 406.546075 
L 97.67854 389.214243 
L 98.362914 391.382541 
L 99.047287 371.911516 
L 99.731661 366.410733 
L 100.416034 365.901401 
L 101.100408 354.070352 
L 101.784781 353.168107 
L 102.469154 338.644876 
L 103.153528 346.765079 
L 103.837901 342.021018 
L 104.522275 338.062783 
L 105.206648 319.639525 
L 105.891021 325.140308 
L 106.575395 317.587646 
L 107.259768 328.152642 
L 107.944142 301.521867 
L 108.628515 310.253269 
L 109.312888 302.569636 
L 109.997262 299.339017 
L 110.681635 299.804692 
L 112.050382 277.947083 
L 112.734756 282.545622 
L 113.419129 282.458308 
L 114.103502 280.72658 
L 114.787876 284.408321 
L 115.472249 270.714573 
L 116.156623 269.404862 
L 116.840996 267.83321 
L 117.525369 262.856311 
L 118.209743 251.88385 
L 118.894116 258.432401 
L 119.57849 253.659235 
L 120.262863 250.32675 
L 120.947236 257.020825 
L 121.63161 250.093913 
L 122.315983 240.969598 
L 123.000357 239.223318 
L 123.68473 226.708309 
L 124.369104 228.993026 
L 125.053477 237.258753 
L 125.73785 223.681423 
L 126.422224 227.726973 
L 127.106597 207.382807 
L 127.790971 218.23885 
L 128.475344 215.590325 
L 129.159717 209.420134 
L 130.528464 204.821596 
L 131.212838 207.863034 
L 131.897211 200.077535 
L 132.581584 207.382807 
L 133.265958 201.809263 
L 133.950331 199.61186 
L 134.634705 198.040208 
L 135.319078 188.653951 
L 136.003452 194.445781 
L 136.687825 184.637506 
L 137.372198 192.728605 
L 138.056572 192.612186 
L 138.740945 185.263257 
L 139.425319 180.853899 
L 140.109692 183.400558 
L 140.794065 178.641944 
L 141.478439 184.200936 
L 142.162812 187.722602 
L 143.531559 173.94154 
L 144.215932 179.253142 
L 144.900306 175.847896 
L 145.584679 173.155714 
L 146.269053 174.683709 
L 146.953426 168.164262 
L 147.6378 170.492636 
L 148.322173 167.087389 
L 149.006546 165.020958 
L 149.69092 166.417982 
L 150.375293 161.237351 
L 151.059667 164.555283 
L 151.74404 154.499619 
L 152.428413 151.982065 
L 153.112787 158.355988 
L 153.79716 159.92764 
L 154.481534 156.158585 
L 155.85028 151.399972 
L 156.534654 150.39586 
L 157.219027 153.248118 
L 157.903401 150.977954 
L 158.587774 154.572381 
L 159.272148 148.358533 
L 159.956521 147.994725 
L 160.640894 153.029833 
L 161.325268 144.371193 
L 162.009641 144.03649 
L 162.694015 141.35886 
L 163.378388 145.258886 
L 164.062761 147.52905 
L 164.747135 139.743551 
L 165.431508 138.841306 
L 166.115882 137.589805 
L 166.800255 144.385746 
L 167.484628 142.261105 
L 168.169002 136.207333 
L 168.853375 135.974496 
L 169.537749 140.078254 
L 170.222122 140.500272 
L 170.906496 140.747662 
L 171.590869 136.542037 
L 172.275242 137.284206 
L 172.959616 132.481935 
L 173.643989 132.94761 
L 174.328363 135.916286 
L 175.012736 133.777093 
L 175.697109 134.373739 
L 176.381483 136.192781 
L 177.065856 125.293081 
L 177.75023 134.06814 
L 178.434603 131.550586 
L 179.118976 127.359513 
L 179.80335 128.741985 
L 180.487723 131.783423 
L 181.172097 126.09346 
L 181.85647 123.808743 
L 182.540844 128.043473 
L 183.225217 125.962489 
L 183.90959 126.922943 
L 184.593964 130.400951 
L 185.962711 122.004253 
L 186.647084 125.584128 
L 187.331457 122.746422 
L 188.015831 120.54902 
L 189.384578 125.627785 
L 190.068951 126.646448 
L 190.753324 122.630004 
L 192.122071 119.603118 
L 192.806445 118.584454 
L 193.490818 117.362058 
L 194.175192 120.941933 
L 194.859565 121.698654 
L 195.543938 120.432601 
L 196.228312 119.937822 
L 196.912685 115.63033 
L 197.597059 115.208312 
L 198.281432 113.796736 
L 198.965805 118.235198 
L 199.650179 114.5098 
L 200.334552 116.459813 
L 201.018926 114.349725 
L 201.703299 117.172878 
L 202.387672 117.391163 
L 203.072046 114.160544 
L 204.440793 111.759409 
L 205.809539 117.798628 
L 206.493913 119.42849 
L 207.178286 113.534794 
L 207.86266 111.875828 
L 208.547033 109.547454 
L 209.231407 109.096331 
L 209.91578 110.711641 
L 210.600153 109.780291 
L 211.284527 110.857164 
L 211.9689 108.674314 
L 212.653274 109.765739 
L 213.337647 112.923596 
L 214.02202 110.289623 
L 214.706394 111.439257 
L 215.390767 107.175423 
L 216.075141 109.794844 
L 216.759514 108.121325 
L 217.443887 110.304175 
L 218.128261 107.873935 
L 287.249975 88.097311 
L 355.687317 80.297259 
L 424.124658 74.956552 
L 492.561999 69.295693 
L 560.99934 67.709488 
L 629.436681 65.133725 
L 697.874022 64.246033 
L 766.311364 63.023636 
L 766.311364 63.023636 
" clip-path="url(#p96a605a65a)" style="fill: none; stroke-dasharray: 9.6,2.4,1.5,2.4; stroke-dashoffset: 0; stroke: #d95f02; stroke-width: 1.5"/>
   </g>
   <g id="patch_8">
    <path d="M 47.72 822.04 
L 47.72 26.88 
" style="fill: none; stroke: #000000; stroke-width: 0.8; stroke-linejoin: miter; stroke-linecap: square"/>
   </g>
   <g id="patch_9">
    <path d="M 800.53 822.04 
L 800.53 26.88 
" style="fill: none; stroke: #000000; stroke-width: 0.8; stroke-linejoin: miter; stroke-linecap: square"/>
   </g>
   <g id="patch_10">
    <path d="M 47.72 822.04 
L 800.53 822.04 
" style="fill: none; stroke: #000000; stroke-width: 0.8; stroke-linejoin: miter; stroke-linecap: square"/>
   </g>
   <g id="patch_11">
    <path d="M 47.72 26.88 
L 800.53 26.88 
" style="fill: none; stroke: #000000; stroke-width: 0.8; stroke-linejoin: miter; stroke-linecap: square"/>
   </g>
  </g>
 </g>
 <defs>
  <clipPath id="p96a605a65a">
   <rect x="47.72" y="26.88" width="752.81" height="795.16"/>
  </clipPath>
 </defs>
</svg>
